<svg xmlns="http://www.w3.org/2000/svg" width="294.4" height="294.4"><path d="M11.2 294.4H9.6v-3.2H6.4V288H3.2v3.2H0V288h3.2v-3.2H0v-3.2h3.2v3.2h3.2v-3.2h3.2v-3.2H6.4v-3.2H3.2v3.2H0v-3.2h3.2V272H0v-3.2h3.2v3.2h3.2v-3.2h3.2v-3.2H6.4v-3.2H3.2v3.2H0v-3.2h3.2v-3.2H0V256h3.2v3.2h3.2V256h3.2v-3.2H6.4v-3.2H3.2v3.2H0v-3.2h3.2v-3.2H0v-3.2h3.2v3.2h3.2v-3.2h3.2V240H6.4v-3.2H3.2v3.2H0v-3.2h3.2v-3.2H0v-3.2h3.2v3.2h3.2v-3.2h3.2v-3.2H6.4V224H3.2v3.2H0V224h3.2v-3.2H0v-3.2h3.2v3.2h3.2v-3.2h3.2v-3.2H6.4v-3.2H3.2v3.2H0v-3.2h3.2V208H0v-3.2h3.2v3.2h3.2v-3.2h3.2v-3.2H6.4v-3.2H3.2v3.2H0v-3.2h3.2v-3.2H0V192h3.2v3.2h3.2V192h3.2v-3.2H6.4v-3.2H3.2v3.2H0v-3.2h3.2v-3.2H0v-3.2h3.2v3.2h3.2v-3.2h3.2V176H6.4v-3.2H3.2v3.2H0v-3.2h3.2v-3.2H0v-3.2h3.2v3.2h3.2v-3.2h3.2v-3.2H6.4V160H3.2v3.2H0V160h3.2v-3.2H0v-3.2h3.2v3.2h3.2v-3.2h3.2v-3.2H6.4v-3.2H3.2v3.2H0v-3.2h3.2V144H0v-3.2h3.2v-3.2H0v-3.2h3.2v-3.2H0V128h3.2v-3.2H0v-3.2h3.2v-3.2H0v-3.2h3.2V112H0v-3.2h3.2v-3.2H0v-3.2h3.2v-3.2H0V96h3.2v-3.2H0v-3.2h3.2v-3.2H0v-3.2h3.2V80H0v-3.2h3.2V80h3.2v-3.2h3.2v-3.2H6.4v-3.2H3.2v3.2H0v-3.2h3.2v-3.2H0V64h3.2v3.2h3.2V64h3.2v-3.2H6.4v-3.2H3.2v3.2H0v-3.2h3.2v-3.2H0v-3.2h3.2v3.2h3.2v-3.2h3.2V48H6.4v-3.2H3.2V48H0v-3.2h3.2v-3.2H0v-3.2h3.2v3.2h3.2v-3.2h3.2v-3.2H6.4V32H3.2v3.2H0V32h3.2v-3.2H0v-3.2h3.2v3.2h3.2v-3.2h3.2v-3.2H6.4v-3.2H3.2v3.2H0v-3.2h3.2V16H0v-3.2h3.2V9.6H0V6.4h3.2V3.2H0V0h3.2v3.2h3.2V0h3.2v3.2h3.2V0H16v3.2h3.2V0h3.2v3.2h3.2V0h3.2v3.2H32V0h3.2v3.2h3.2V0h3.2v3.2h3.2V0H48v3.2h3.2V0h3.2v3.2h3.2V0h3.2v3.2H64V0h3.2v3.2h3.2V0h3.2v3.2h3.2V0H80v3.2h3.2V0h3.2v3.2h3.2V0h3.2v3.2H96V0h3.2v3.2h3.2V0h9.6v3.2h3.2V0h9.6v3.2h3.2V0h9.6v3.2h3.2V0h3.2v3.2h3.2V0h3.2v3.2h3.2V0h9.6v3.2h3.2V0h3.2v3.2h3.2V0h3.2v3.2h3.2V0h3.2v3.2h3.2V0h3.2v3.2h3.2V0h3.2v3.2h3.2V0h3.2v3.2h3.2V0h3.2v3.2h3.2V0h3.2v3.2h3.2V0h3.2v3.2h3.2V0h3.2v3.2h3.2V0h3.2v3.2h3.2V0h3.2v3.2h-3.2v3.2h3.2v3.2h3.2V6.4h3.2V3.2h-3.2V0h3.2v3.2h3.2V0h3.2v3.2h-3.2v3.2h3.2v3.2h-3.2V6.4h-3.2v3.2h-3.2v3.2h3.2V16h3.2v-3.2h3.2V16h-3.2v3.2h3.2v3.2h-3.2v-3.2h-3.2v3.2h-3.2v-3.2h3.2V16h-3.2v-3.2H240V16h-3.2v3.2h3.2v3.2h-3.2v-3.2h-3.2v3.2h-3.2v3.2h3.2v3.2h3.2v-3.2h3.2v3.2h-3.2V32h3.2v3.2h3.2V32h3.2v-3.2h-3.2v-3.2h3.2v3.2h3.2v-3.2h3.2v3.2h-3.2V32h3.2v3.2h-3.2V32h-3.2v3.2h-3.2v3.2h3.2v3.2h3.2v-3.2h3.2v3.2h-3.2v3.2h3.2V48h3.2v-3.2h3.2v-3.2H256v-3.2h3.2v3.2h3.2v-3.2h3.2v-3.2h-3.2V32h-3.2v3.2H256V32h3.2v-3.2H256v-3.2h3.2v3.2h3.2v-3.2h3.2v3.2h-3.2V32h3.2v3.2h3.2V32h3.2v-3.2h-3.2v-3.2h3.2v3.2h3.2v-3.2h3.2v3.2h-3.2V32h3.2v3.2h-3.2V32H272v3.2h-3.2v3.2h3.2v3.2h3.2v-3.2h3.2v3.2h-3.2v3.2h3.2V48h3.2v-3.2h3.2v-3.2h-3.2v-3.2h3.2v3.2h3.2v-3.2h3.2v-3.2H288V32h-3.2v3.2h-3.2V32h3.2v-3.2h-3.2v-3.2h3.2v3.2h3.2v-3.2h3.2v3.2H288V32h3.2v3.2h3.2v3.2h-3.2v3.2H288v3.2h3.2V48h3.2v3.2h-3.2v3.2h3.2v3.2h-3.2v3.2h3.2V64h-3.2v3.2H288v3.2h3.2v3.2h3.2v3.2h-3.2V80h3.2v3.2h-3.2v3.2h3.2v3.2h-3.2v3.2h3.2V96h-3.2v3.2h3.2v3.2h-3.2v3.2h3.2v3.2h-3.2v3.2h3.2v3.2h-3.2v3.2h3.2v3.2h-3.2v3.2h3.2v3.2h-3.2v3.2h3.2v3.2h-3.2v3.2h3.2v3.2h-3.2v3.2h3.2v3.2h-3.2v3.2h3.2v3.2h-3.2v3.2h3.2v3.2h-3.2v3.2h3.2v3.2h-3.2v3.2H288v3.2h3.2v3.2h3.2v3.2h-3.2v3.2h3.2v3.2h-3.2v3.2h3.2v3.2h-3.2v3.2H288v3.2h3.2v3.2H288v-3.2h-3.2v3.2h-3.2v3.2h3.2v3.2h3.2v-3.2h3.2v3.2H288v3.2h3.2v3.2h3.2v3.2h-3.2v3.2H288v3.2h3.2v3.2h3.2v3.2h-3.2v3.2h3.2v3.2h-3.2v3.2h3.2v3.2h-3.2v3.2H288v3.2h3.2v3.2h3.2v3.2h-3.2v3.2h3.2v3.2h-3.2v3.2h3.2v3.2h-3.2v3.2h3.2v3.2h-3.2v3.2h3.2v3.2h-3.2v3.2h3.2v3.2h-3.2v3.2h3.2v3.2h-3.2v-3.2H288v3.2h-3.2v-3.2h-3.2v3.2h-3.2v-3.2h-3.2v3.2H272v-3.2h-3.2v3.2h-3.2v-3.2h-3.2v3.2h-3.2v-3.2H256v3.2h-3.2v-3.2h-3.2v3.2h-3.2v-3.2h-3.2v3.2h-9.6v-3.2h-3.2v3.2h-3.2v-3.2H224V288h3.2v-3.2h3.2v-3.2h3.2v-3.2h3.2v-3.2h3.2V272h-3.2v-3.2h3.2v3.2h3.2v-3.2h3.2v-3.2h-3.2v-3.2h3.2v-3.2h-3.2V256h3.2v-3.2h-3.2v-3.2h3.2v-3.2h-3.2v-3.2H240v3.2h-3.2v-3.2h3.2V240h-3.2v-3.2h-3.2v3.2h-3.2v3.2h3.2v3.2h-3.2v3.2h3.2v3.2h-3.2v3.2h3.2v3.2h-3.2V256h-3.2v3.2H224v3.2h3.2v3.2H224v-3.2h-3.2v3.2h-3.2v3.2h3.2v3.2h-3.2v-3.2h-3.2v3.2h-3.2v3.2h3.2v3.2h-3.2v-3.2H208v3.2h-3.2v-3.2h-3.2v3.2h-3.2v-3.2h-3.2v3.2H192v3.2h3.2v3.2H192v-3.2h-3.2v3.2h-3.2v3.2h3.2v3.2h-3.2V288h-3.2v3.2h-3.2V288H176v3.2h-3.2V288h-3.2v3.2h-3.2v3.2h-3.2v-3.2H160V288h-3.2v3.2h-3.2v3.2h-3.2v-3.2h-3.2V288H144v3.2h-3.2v3.2h-3.2v-3.2h-3.2V288h-3.2v3.2H128V288h-3.2v3.2h-3.2V288h-3.2v3.2h-3.2v3.2H112v-3.2h-3.2V288h-3.2v3.2h-3.2v3.2h-3.2v-3.2H96V288h-3.2v3.2h-3.2V288h3.2v-3.2h-3.2v-3.2h3.2v-3.2h-3.2v-3.2h3.2V272h-3.2v-3.2h-3.2v3.2h-3.2v3.2h3.2v3.2h-3.2v-3.2H80v3.2h-3.2v3.2H80v3.2h-3.2v3.2H80v3.2h-3.2v3.2h-3.2v-3.2h-3.2v3.2h-3.2v-3.2H64v3.2h-3.2v-3.2h-3.2V288h-3.2v3.2h-3.2v3.2H48v-3.2h-3.2V288h-3.2v3.2h-3.2v3.2h-3.2v-3.2H32V288h-3.2v3.2h-3.2v3.2h-3.2v-3.2h-3.2V288H16v3.2h-3.2v3.2zm0-3.2h1.6V288H16v-3.2h3.2v3.2h3.2v3.2h3.2V288h3.2v-3.2H32v3.2h3.2v3.2h3.2V288h3.2v-3.2h3.2v3.2H48v3.2h3.2V288h3.2v-3.2h3.2v3.2h3.2v3.2H64V288h3.2v3.2h3.2V288h3.2v3.2h3.2V288h-3.2v-3.2h3.2v-3.2h-3.2v-3.2h3.2v-3.2H80V272h3.2v-3.2h3.2v-3.2h3.2v3.2h3.2v-3.2H96v3.2h3.2v-3.2h3.2v3.2h3.2v-3.2h3.2v3.2h3.2v3.2h-3.2v3.2h-3.2V272h-3.2v3.2h3.2v3.2h-3.2v3.2h-3.2v-3.2H96v-3.2h3.2V272H96v3.2h-3.2v3.2H96v3.2h-3.2v3.2H96v3.2h3.2v3.2h3.2V288h3.2v-3.2h3.2v3.2h3.2v3.2h3.2V288h3.2v-3.2h-3.2v-3.2h3.2v-3.2h3.2v3.2h3.2v3.2h-3.2v3.2h3.2v-3.2h3.2v3.2h3.2v-3.2H128v-3.2h3.2v-3.2h3.2v3.2h3.2v-3.2h3.2v3.2h3.2v-3.2h3.2v3.2h3.2v-3.2h-3.2v-3.2h3.2V272h3.2v3.2h3.2v3.2h-3.2v3.2h3.2v-3.2h3.2v3.2h3.2v-3.2H160v-3.2h3.2V272h3.2v3.2h3.2v3.2h-3.2v3.2h3.2v-3.2h3.2v3.2h3.2v3.2h-3.2v3.2h3.2v-3.2h3.2v3.2h3.2v-3.2h3.2v-3.2h3.2v-3.2h-3.2v3.2h-3.2v-3.2h-3.2v3.2H176v-3.2h-3.2v-3.2h3.2V272h3.2v3.2h3.2V272h-3.2v-3.2h3.2v-3.2h3.2v3.2h3.2v-3.2h3.2v3.2h3.2v-3.2h3.2v3.2h3.2v-3.2h-3.2v-3.2h3.2v-3.2h3.2v3.2h3.2v3.2h-3.2v3.2h3.2v3.2h-3.2v3.2h3.2V272h3.2v-3.2h3.2v-3.2h3.2v-3.2h3.2v-3.2h3.2V256h3.2v-3.2h3.2v-3.2h-3.2v-3.2h3.2v-3.2h-3.2V240h3.2v-3.2h3.2v-3.2h3.2v3.2h3.2v3.2h3.2v3.2h3.2v3.2h3.2v3.2h-3.2v3.2h3.2v3.2h3.2v3.2h-3.2v3.2h3.2v-3.2h3.2v3.2h3.2v3.2H256v3.2h3.2v-3.2h3.2v3.2h3.2v3.2h-3.2v3.2h3.2V272h3.2v3.2h3.2v3.2h-3.2v3.2h3.2v-3.2h3.2v3.2h3.2v3.2h-3.2v3.2h3.2v-3.2h3.2v3.2h3.2v3.2h3.2V288h3.2v-3.2H288v-3.2h3.2v-3.2H288v-3.2h3.2V272H288v-3.2h3.2v-3.2H288v-3.2h3.2v-3.2H288V256h3.2v-3.2H288v-3.2h-3.2v-3.2h3.2v-3.2h3.2V240H288v-3.2h3.2v-3.2H288v-3.2h3.2v-3.2H288V224h-3.2v-3.2h3.2v-3.2h3.2v-3.2H288v-3.2h-3.2V208h-3.2v-3.2h-3.2v-3.2h3.2v-3.2h3.2v-3.2h3.2V192h3.2v-3.2H288v-3.2h3.2v-3.2H288v-3.2h3.2V176H288v-3.2h-3.2v-3.2h3.2v-3.2h3.2v-3.2H288V160h3.2v-3.2H288v-3.2h3.2v-3.2H288v-3.2h3.2V144H288v-3.2h3.2v-3.2H288v-3.2h3.2v-3.2H288V128h3.2v-3.2H288v-3.2h3.2v-3.2H288v-3.2h3.2V112H288v-3.2h3.2v-3.2H288v-3.2h3.2v-3.2H288V96h3.2v-3.2H288v-3.2h3.2v-3.2H288v-3.2h3.2V80H288v-3.2h3.2v-3.2H288v-3.2h-3.2v-3.2h3.2V64h3.2v-3.2H288v-3.2h3.2v-3.2H288v-3.2h3.2V48H288v-3.2h-3.2V48h-3.2v3.2h-3.2V48h-3.2v-3.2H272v-3.2h-3.2v-3.2h-3.2v3.2h-3.2v3.2h-3.2V48H256v3.2h-3.2V48h-3.2v-3.2h-3.2v-3.2h-3.2v-3.2H240v-3.2h-3.2V32h-3.2v-3.2h-3.2v-3.2h-3.2v-3.2h3.2v-3.2h3.2V16h3.2v-3.2h3.2V9.6h-3.2V6.4h-3.2V3.2h-3.2v3.2h-3.2V3.2H224v3.2h-3.2V3.2h-3.2v3.2h-3.2V3.2h-3.2v3.2H208V3.2h-3.2v3.2h-3.2V3.2h-3.2v3.2h-3.2V3.2H192v3.2h-3.2V3.2h-3.2v3.2h-3.2V3.2h-3.2v3.2H176V3.2h-3.2v3.2h-3.2V3.2h-3.2v3.2h-3.2V3.2H160v3.2h-3.2V3.2h-3.2v3.2h-3.2V3.2h-3.2v3.2H144V3.2h-3.2v3.2h-3.2V3.2h-3.2v3.2h-3.2V3.2H128v3.2h3.2v3.2H128v3.2h-3.2V9.6h-3.2v3.2h3.2V16h-3.2v3.2h-3.2V16h-3.2v3.2h3.2v3.2h-3.2v3.2h3.2v-3.2h3.2v3.2h3.2v-3.2h-3.2v-3.2h3.2V16h3.2v3.2h3.2v3.2H128v3.2h3.2v-3.2h3.2v3.2h3.2v3.2h-3.2V32h3.2v-3.2h3.2V32h3.2v3.2h-3.2v3.2h3.2v-3.2h3.2v3.2h3.2v-3.2h-3.2V32h3.2v-3.2h3.2V32h3.2v3.2h-3.2v3.2h3.2v-3.2h3.2v3.2h3.2v3.2H160v3.2h-3.2v-3.2h-3.2v3.2h-3.2v-3.2h-3.2v3.2H144v-3.2h-3.2v3.2h-3.2v-3.2h-3.2v3.2h-3.2v-3.2H128v3.2h-3.2v-3.2h-3.2v3.2h-3.2v-3.2h-3.2v3.2H112v-3.2h-3.2v3.2h-3.2v-3.2h-3.2v3.2h3.2V48h-3.2v3.2h-3.2V48H96v-3.2h3.2v-3.2H96v3.2h-3.2v-3.2h-3.2v3.2h3.2V48h-3.2v3.2h3.2V48H96v3.2h3.2v3.2H96v3.2h-3.2v-3.2h-3.2v3.2h-3.2v-3.2h-3.2v3.2H80v-3.2h-3.2v-3.2H80V48h3.2v3.2h3.2V48h-3.2v-3.2h3.2v-3.2h-3.2v3.2H80v-3.2h-3.2v3.2H80V48h-3.2v3.2h-3.2V48h-3.2v3.2h3.2v3.2h-3.2v3.2h-3.2v-3.2H64v3.2h3.2v3.2H64V64h-3.2v-3.2h-3.2v-3.2h3.2v-3.2h-3.2v3.2h-3.2v3.2h-3.2V64H48v-3.2h-3.2v-3.2H48v-3.2h-3.2v3.2h-3.2v-3.2h-3.2v-3.2h3.2V48h3.2v3.2H48V48h-3.2v-3.2H48v-3.2h3.2v3.2h3.2v-3.2h-3.2v-3.2h3.2v-3.2h3.2v3.2h3.2v-3.2H64v3.2h3.2v-3.2h3.2V32h3.2v-3.2h3.2V32H80v3.2h-3.2v3.2H80v-3.2h3.2v3.2h3.2v-3.2h-3.2V32h3.2v-3.2h-3.2V32H80v-3.2h-3.2v-3.2H80v-3.2h-3.2v3.2h-3.2v-3.2h-3.2v-3.2h3.2V16h3.2v3.2H80V16h3.2v3.2h3.2V16h3.2v3.2h3.2v3.2h-3.2v3.2h3.2v-3.2H96v3.2h3.2v-3.2H96v-3.2h3.2V16H96v-3.2h3.2V9.6h3.2v3.2h3.2V9.6h3.2v3.2h3.2V9.6h-3.2V6.4h3.2V3.2h-3.2v3.2h-3.2V3.2h-3.2v3.2h-3.2V3.2H96v3.2h-3.2V3.2h-3.2v3.2h-3.2V3.2h-3.2v3.2H80V3.2h-3.2v3.2h-3.2V3.2h-3.2v3.2h-3.2V3.2H64v3.2h-3.2V3.2h-3.2v3.2h-3.2V3.2h-3.2v3.2H48V3.2h-3.2v3.2h-3.2V3.2h-3.2v3.2h-3.2V3.2H32v3.2h-3.2V3.2h-3.2v3.2h-3.2V3.2h-3.2v3.2H16V3.2h-3.2v3.2H9.6V3.2H6.4v3.2H3.2v3.2h3.2v3.2H3.2V16h3.2v3.2h3.2v3.2h3.2v3.2H9.6v3.2H6.4V32h3.2v3.2h3.2v3.2H9.6v3.2H6.4v3.2h3.2V48h3.2v3.2H9.6v3.2H6.4v3.2h3.2v3.2h3.2V64H9.6v3.2H6.4v3.2h3.2v3.2h3.2v3.2H9.6V80H6.4v3.2H3.2v3.2h3.2v3.2H3.2v3.2h3.2V96H3.2v3.2h3.2v3.2h3.2v-3.2H6.4V96h3.2v-3.2H6.4v-3.2h3.2v-3.2H6.4v-3.2h3.2V80h3.2v3.2H16V80h-3.2v-3.2H16v-3.2h3.2v3.2h3.2v-3.2h-3.2v-3.2h3.2v-3.2h3.2v3.2h3.2v3.2h-3.2v3.2h3.2v-3.2H32v3.2h3.2V80H32v3.2h-3.2V80h-3.2v3.2h3.2v3.2h-3.2v3.2h-3.2v-3.2h-3.2v3.2h3.2v3.2h-3.2V96h3.2v3.2h-3.2v3.2h3.2v3.2h-3.2v3.2h3.2v-3.2h3.2v3.2h3.2v3.2h-3.2v3.2h3.2V112H32v3.2h3.2v3.2H32v3.2h-3.2v-3.2h-3.2v3.2h3.2v3.2h-3.2v3.2h3.2v-3.2H32v3.2h3.2v3.2H32v3.2h-3.2v3.2h-3.2v3.2h3.2v-3.2H32v3.2h3.2v3.2H32v3.2h-3.2V144h-3.2v3.2h3.2v3.2h-3.2v3.2h-3.2v-3.2h-3.2v-3.2h3.2V144h-3.2v3.2H16V144h-3.2v-3.2H16v-3.2h3.2v3.2h3.2v-3.2h-3.2v-3.2h3.2v-3.2h-3.2v3.2H16v-3.2h-3.2V128H16v-3.2h3.2v3.2h3.2v-3.2h-3.2v-3.2h3.2v-3.2h-3.2v3.2H16v-3.2h-3.2v3.2H16v3.2h-3.2v3.2H9.6v-3.2H6.4v-3.2h3.2v-3.2H6.4v-3.2h3.2V112H6.4v-3.2h3.2v-3.2H6.4v3.2H3.2v3.2h3.2v3.2H3.2v3.2h3.2v3.2H3.2v3.2h3.2v3.2H3.2v3.2h3.2v3.2H3.2v3.2h3.2v3.2H3.2v3.2h3.2v3.2h3.2v3.2h3.2v3.2H9.6v3.2H6.4v3.2h3.2v3.2h3.2v3.2H9.6v3.2H6.4v3.2h3.2v3.2h3.2v3.2H9.6v3.2H6.4v3.2h3.2v3.2h3.2v3.2H9.6v3.2H6.4v3.2h3.2v3.2h3.2v3.2H9.6v3.2H6.4v3.2h3.2v3.2h3.2v3.2H9.6v3.2H6.4v3.2h3.2v3.2h3.2v3.2H9.6v3.2H6.4v3.2h3.2v3.2h3.2v3.2H9.6v3.2H6.4v3.2h3.2v3.2h3.2v3.2H9.6v3.2H6.4v3.2h3.2v3.2h3.2v3.2H9.6v3.2H6.4v3.2h3.2v3.2h3.2v3.2H9.6v3.2H6.4v3.2h3.2v3.2zm51.2-3.2h-1.6v-3.2h-3.2v-3.2h3.2v-3.2h-3.2v-3.2h-3.2v3.2h-3.2v3.2h3.2v3.2h-3.2v-3.2H48v3.2h-3.2v-3.2H48v-3.2h-3.2v-3.2h-3.2v3.2h-3.2v3.2h3.2v3.2h-3.2v-3.2h-3.2v3.2H32v-3.2h3.2v-3.2H32v-3.2h-3.2v3.2h-3.2v3.2h3.2v3.2h-3.2v-3.2h-3.2v3.2h-3.2v-3.2h3.2v-3.2h-3.2v-3.2H16v3.2h-3.2v-3.2H16V272h-3.2v-3.2H16v3.2h3.2v-3.2h3.2v-3.2h-3.2v-3.2H16v3.2h-3.2v-3.2H9.6v-3.2h3.2V256H16v3.2h3.2V256h3.2v-3.2h-3.2v-3.2H16v3.2h-3.2v-3.2H9.6v-3.2h3.2v-3.2H16v3.2h3.2v-3.2h3.2V240h-3.2v-3.2H16v3.2h-3.2v-3.2H9.6v-3.2h3.2v-3.2H16v3.2h3.2v-3.2h3.2v-3.2h-3.2V224H16v3.2h-3.2V224H9.6v-3.2h3.2v-3.2H16v3.2h3.2v-3.2h3.2v-3.2h-3.2v-3.2H16v3.2h-3.2v-3.2H9.6V208h3.2v-3.2H16v3.2h3.2v-3.2h3.2v-3.2h-3.2v-3.2H16v3.2h-3.2v-3.2H16v-3.2h-3.2V192H16v3.2h3.2V192h3.2v3.2h-3.2v3.2h3.2v3.2h3.2v-3.2h3.2v-3.2h-3.2V192h3.2v3.2H32V192h3.2v-3.2H32v-3.2h-3.2v3.2h-3.2v-3.2h3.2v-3.2h-3.2v-3.2h-3.2v3.2h-3.2v3.2h3.2v3.2h-3.2v-3.2H16v3.2h-3.2v-3.2H9.6v-3.2h3.2v-3.2H16v3.2h3.2v-3.2h3.2V176h-3.2v-3.2H16v3.2h-3.2v-3.2H9.6v-3.2h3.2v-3.2h9.6v-3.2h-3.2V160H16v3.2h-3.2V160H9.6v-3.2h3.2v-3.2H16v-3.2h-3.2v-3.2H9.6V144H6.4v-3.2h3.2v-3.2H6.4v-3.2h3.2v-3.2H6.4V128h3.2v3.2h3.2v3.2H16v3.2h-3.2v3.2H9.6v3.2h3.2v3.2H16v3.2h3.2v3.2h3.2v3.2h3.2v-3.2h3.2v-3.2H32v-3.2h3.2V144h3.2v-3.2h-3.2v-3.2H32v-3.2h3.2v-3.2h3.2V128h-3.2v-3.2H32v-3.2h3.2v-3.2h3.2v-3.2h-3.2V112H32v-3.2h-3.2v-3.2h-3.2v-3.2h-3.2v-3.2h3.2V96h-3.2v-3.2h3.2v-3.2h3.2v-3.2H32v-3.2h3.2V80h3.2v-3.2h-3.2v-3.2H32v-3.2h-3.2v-3.2h-3.2V64h-3.2v3.2h-3.2v3.2H16v3.2h-3.2v-3.2H9.6v-3.2h3.2V64H16v3.2h3.2V64h3.2v-3.2h-3.2v-3.2H16v3.2h-3.2v-3.2H9.6v-3.2h3.2v-3.2H16v3.2h3.2v-3.2h3.2V48h-3.2v-3.2H16V48h-3.2v-3.2H16v-3.2h-3.2v-3.2H16v3.2h3.2v-3.2h3.2v-3.2h-3.2V32H16v3.2h-3.2V32H9.6v-3.2h3.2v-3.2H16v3.2h3.2v-3.2h3.2v-3.2h-3.2v-3.2H16v3.2h-3.2v-3.2H9.6V16H6.4v-3.2h3.2V9.6H6.4V6.4h3.2v3.2h3.2V6.4H16v3.2h-3.2v3.2H16V16h3.2v-3.2h3.2V9.6h-3.2V6.4h3.2v3.2h3.2V6.4h3.2v3.2h-3.2v3.2h3.2V16H32v-3.2h3.2V9.6H32V6.4h3.2v3.2h3.2V6.4h3.2v3.2h-3.2v3.2h3.2V16h3.2v-3.2H48V9.6h-3.2V6.4H48v3.2h3.2V6.4h3.2v3.2h3.2V6.4h3.2v3.2H64V6.4h3.2v3.2h3.2V6.4h3.2v3.2h3.2V6.4H80v3.2h3.2V6.4h3.2v3.2h3.2V6.4h3.2v3.2H96V6.4h3.2v3.2H96v3.2h-3.2V16H96v3.2h-3.2V16h-3.2v-3.2h-3.2V16h-3.2v-3.2H80V16h-3.2v-3.2h-3.2V16h-3.2v3.2h-3.2v3.2h3.2v3.2h3.2v3.2h-3.2V32h-3.2v3.2H64V32h-3.2v3.2h-3.2V32h-3.2v3.2h-3.2v3.2H48v3.2h-3.2v3.2h-3.2V48h-3.2v3.2h-3.2v3.2h3.2v3.2h3.2v3.2h3.2V64H48v3.2h3.2V64h3.2v-3.2h3.2V64h3.2v3.2H64V64h3.2v-3.2h3.2v-3.2h3.2v-3.2h3.2v3.2H80v3.2h-3.2V64H80v3.2h-3.2V64h-3.2v3.2h-3.2v3.2h3.2v3.2h-3.2v-3.2h-3.2v3.2H64v-3.2h-3.2v3.2h-3.2v-3.2h-3.2v3.2h-3.2v3.2h3.2V80h3.2v-3.2h3.2V80h-3.2v3.2h3.2v3.2h-3.2v-3.2h-3.2v3.2h-3.2v3.2h3.2v3.2h3.2v-3.2h3.2v3.2h-3.2V96h3.2v3.2h-3.2V96h-3.2v3.2h-3.2v3.2h3.2v3.2h3.2v-3.2h3.2v3.2h-3.2v3.2h3.2v3.2h-3.2v-3.2h-3.2v3.2h-3.2v3.2h3.2v3.2h3.2v-3.2h3.2v3.2h-3.2v3.2h3.2v3.2H64v-3.2h3.2v3.2H64v3.2h3.2v3.2H64V128h-3.2v3.2h-3.2v3.2h3.2v3.2h-3.2v-3.2h-3.2v3.2h-3.2v3.2h3.2v3.2h3.2v-3.2h3.2v3.2h-3.2v3.2h9.6V144H64v-3.2h3.2v3.2h3.2v-3.2h3.2v3.2h3.2v-3.2H80v3.2h3.2v-3.2h3.2v3.2h3.2v-3.2h3.2v3.2H96v-3.2h3.2v3.2H96v3.2h3.2v3.2H96v-3.2h-3.2v3.2h-3.2v3.2h3.2v3.2h-3.2v-3.2h-3.2v3.2h-3.2v3.2h3.2v3.2h-3.2V160H80v3.2h-3.2V160h-3.2v3.2h-3.2V160h-3.2v3.2H64V160h-3.2v3.2h-3.2V160h-3.2v3.2h-3.2V160H48v3.2h-3.2V160h-3.2v3.2h-3.2v3.2h3.2v3.2h3.2v-3.2H48v3.2h-3.2v3.2H48v3.2h-3.2v-3.2h-3.2v3.2h-3.2v3.2h3.2v3.2h3.2v-3.2H48v3.2h-3.2v3.2H48v3.2h-3.2v-3.2h-3.2v3.2h-3.2v3.2h3.2v3.2h3.2V192H48v3.2h-3.2v3.2H48v3.2h3.2v-3.2h3.2v3.2h-3.2v3.2h3.2v3.2h3.2v-3.2h3.2v3.2h-3.2v3.2h3.2v3.2H64v-3.2h3.2v3.2H64v3.2h3.2v3.2h3.2v-3.2h3.2v3.2h-3.2v3.2h3.2v3.2h-3.2V224h-3.2v3.2H64v3.2h3.2v3.2h3.2v-3.2h3.2v3.2h-3.2v3.2h3.2v3.2h3.2v-3.2H80v3.2h-3.2v3.2H80v3.2h3.2v-3.2h3.2v3.2h-3.2v3.2h3.2v3.2h-3.2v-3.2H80v3.2h-3.2v3.2h9.6v3.2h3.2V256h3.2v3.2H96V256h3.2v3.2H96v3.2h3.2v3.2H96v-3.2h-3.2v3.2h-3.2v-3.2h-3.2v3.2h-3.2v-3.2H80v3.2h-3.2v3.2H80v3.2h-3.2v-3.2h-3.2v3.2h-3.2v3.2h3.2v3.2h-3.2v-3.2h-3.2v3.2H64v3.2h3.2v3.2h3.2v-3.2h3.2v3.2h-3.2v3.2h-3.2v-3.2H64v3.2zm0-3.2H64v-3.2h-3.2v3.2zM24 278.4h1.6v-3.2h3.2V272H32v3.2h3.2v3.2h3.2v-3.2h3.2V272h3.2v3.2H48v3.2h3.2v-3.2h3.2V272h3.2v3.2h3.2v3.2H64v-3.2h3.2V272h3.2v-3.2h3.2v-3.2h3.2v-3.2H80v-3.2h-3.2V256h-3.2v-3.2h3.2v-3.2H80v-3.2h-3.2v-3.2h-3.2V240h-3.2v-3.2h-3.2v-3.2H64v-3.2h-3.2v-3.2H64V224h3.2v-3.2H64v-3.2h-3.2v-3.2h-3.2v-3.2h-3.2V208h-3.2v-3.2H48v-3.2h-3.2v-3.2h-3.2v-3.2h-3.2V192h-3.2v3.2H32v3.2h-3.2v3.2h-3.2v3.2h-3.2v3.2h-3.2v3.2h3.2v3.2h3.2v3.2h-3.2v3.2h-3.2v3.2h3.2v3.2h3.2v3.2h-3.2v3.2h-3.2v3.2h3.2v3.2h3.2v3.2h-3.2v3.2h-3.2v3.2h3.2v3.2h3.2v3.2h-3.2v3.2h-3.2v3.2h3.2v3.2h3.2v3.2h-3.2v3.2h-3.2v3.2h3.2v3.2zm3.2-6.4h-1.6v-3.2h3.2v3.2zm6.4 0H32v-3.2h3.2v-3.2H32v-3.2h-3.2v3.2h-3.2v-3.2h-3.2v-3.2h3.2V256h3.2v3.2H32V256h3.2v-3.2H32v-3.2h-3.2v3.2h-3.2v-3.2h-3.2v-3.2h3.2v-3.2h3.2V240h-3.2v-3.2h-3.2v-3.2h3.2v-3.2h3.2v3.2H32v-3.2h3.2v-3.2H32V224h-3.2v3.2h-3.2V224h-3.2v-3.2h3.2v-3.2h3.2v3.2H32v-3.2h3.2v-3.2H32v-3.2h-3.2v3.2h-3.2v-3.2h-3.2V208h3.2v-3.2h3.2v3.2H32v-3.2h3.2v-3.2H32v-3.2h3.2v3.2h3.2v-3.2h3.2v3.2h3.2v3.2H48v3.2h3.2v3.2h3.2v3.2h3.2v3.2h3.2v3.2h-3.2v3.2h3.2v3.2h-3.2v3.2h3.2v3.2H64v3.2h3.2v3.2H64v3.2h3.2v3.2h3.2v-3.2h3.2v3.2h3.2v3.2h-3.2v3.2h-3.2v-3.2h-3.2v3.2H64v3.2h3.2v3.2h3.2V256h3.2v3.2h-3.2v3.2h3.2v3.2h-3.2v-3.2h-3.2v3.2H64v3.2h3.2v3.2H64v-3.2h-3.2v3.2h-3.2v-3.2h3.2v-3.2h-3.2v-3.2h-3.2v3.2h-3.2v3.2h3.2v3.2h-3.2v-3.2H48v3.2h-3.2v-3.2H48v-3.2h-3.2v-3.2h-3.2v3.2h-3.2v3.2h3.2v3.2h-3.2v-3.2h-3.2v3.2zm3.2-6.4h1.6v-3.2h3.2v-3.2h3.2v3.2H48v3.2h3.2v-3.2h3.2v-3.2h3.2v3.2h3.2v3.2H64v-3.2h3.2v-3.2H64V256h-3.2v-3.2H64v-3.2h3.2v-3.2H64v-3.2h-3.2V240H64v-3.2h-3.2v-3.2h-3.2v-3.2h-3.2v-3.2h3.2V224h-3.2v-3.2h3.2v-3.2h-3.2v-3.2h-3.2v-3.2H48V208h-3.2v-3.2h-3.2v-3.2h-3.2v3.2h-3.2v3.2H32v3.2h3.2v3.2h3.2v3.2h-3.2v3.2H32v3.2h3.2v3.2h3.2v3.2h-3.2v3.2H32v3.2h-3.2v-3.2h-3.2v3.2h3.2v3.2H32v3.2h-3.2v3.2h-3.2v3.2h3.2v-3.2H32v3.2h3.2v3.2h3.2v3.2h-3.2v3.2H32v3.2h3.2v3.2zm25.6-3.2h-1.6v-3.2h-3.2V256h3.2v3.2H64v3.2zM40 259.2h-1.6V256h3.2v3.2zm6.4 0h-1.6V256H48v-3.2h-3.2v-3.2h-3.2v3.2h-3.2v-3.2h-3.2v-3.2H32v-3.2h3.2V240H32v-3.2h3.2v-3.2h3.2v-3.2h3.2v3.2h3.2v-3.2H48v-3.2h-3.2V224h-3.2v3.2h-3.2V224h-3.2v-3.2h3.2v-3.2h3.2v-3.2h-3.2v-3.2h-3.2V208h3.2v-3.2h3.2v3.2h3.2v3.2H48v3.2h3.2v3.2h3.2v3.2h-3.2v3.2h3.2v3.2h-3.2v3.2h3.2v3.2h3.2v3.2h3.2v3.2h-3.2v3.2h3.2v3.2H64v3.2h-3.2v3.2h-3.2v-3.2h-3.2v3.2h-3.2v3.2h3.2v3.2h-3.2V256H48v3.2zm3.2-6.4h1.6v-3.2h3.2v-3.2h3.2v3.2h3.2v-3.2h-3.2v-3.2h-3.2V240h3.2v-3.2h-3.2v-3.2h-3.2v-3.2H48v3.2h-3.2v3.2h-3.2v-3.2h-3.2v3.2h-3.2v3.2h3.2v3.2h-3.2v3.2h3.2v3.2h3.2v-3.2h3.2v3.2H48v3.2zm0-3.2H48v-3.2h-3.2v-3.2H48V240h-3.2v-3.2H48v-3.2h3.2v3.2h3.2v3.2h-3.2v3.2h3.2v3.2h-3.2v3.2zm0-3.2h1.6v-3.2H48v3.2zm0-6.4h1.6v-3.2H48v3.2zm-9.6 6.4h-1.6v-3.2h3.2v3.2zm0-6.4h-1.6v-3.2h3.2v3.2zm9.6-12.8h1.6V224H48v-3.2h3.2v-3.2H48v-3.2h-3.2v-3.2h-3.2V208h-3.2v3.2h3.2v3.2h3.2v3.2h-3.2v3.2h-3.2v3.2h3.2v-3.2h3.2v3.2H48v3.2zm-3.2-6.4h-1.6v-3.2H48v3.2zm-19.2 41.6h1.6v-3.2h-3.2v3.2zM72 249.6h1.6v-3.2h-3.2v3.2zM27.2 224h1.6v-3.2h-3.2v3.2zm0-12.8h1.6V208h-3.2v3.2zm-12.8 51.2H16v-3.2h-3.2v3.2zm70.4 0h1.6v-3.2h-3.2v3.2zm6.4 0h1.6v-3.2h-3.2v3.2zm-76.8-12.8H16v-3.2h-3.2v3.2zm0-12.8H16v-3.2h-3.2v3.2zm0-12.8H16v-3.2h-3.2v3.2zm0-12.8H16V208h-3.2v3.2zm22.4-22.4h1.6v-3.2h3.2v-3.2h-3.2v-3.2h-3.2V176h3.2v-3.2h3.2v-3.2h-3.2v-3.2h-3.2v-3.2h3.2V160h3.2v-3.2h3.2v3.2H48v-3.2h3.2v3.2h3.2v-3.2h-3.2v-3.2h3.2v-3.2h3.2v3.2h3.2v3.2h-3.2v3.2h3.2v-3.2H64v3.2h3.2v-3.2h3.2v3.2h3.2v-3.2h3.2v3.2H80v-3.2h-3.2v-3.2H80v-3.2h-3.2v3.2h-3.2v-3.2h-3.2v3.2h-3.2v-3.2H64v3.2h-3.2v-3.2h-3.2v-3.2h-3.2V144h-3.2v-3.2H48v-3.2h3.2v-3.2h3.2v-3.2h3.2V128h3.2v-3.2h-3.2v-3.2h-3.2v-3.2h-3.2v-3.2H48V112h3.2v-3.2h3.2v-3.2h-3.2v-3.2H48v-3.2h3.2V96h3.2v-3.2h-3.2v-3.2H48v-3.2h3.2v-3.2h3.2V80h-3.2v-3.2H48v-3.2h3.2v-3.2h3.2v-3.2h-3.2v3.2H48v-3.2h-3.2v3.2h-3.2v-3.2h-3.2V64h3.2v-3.2h-3.2V64h-3.2v-3.2H32V64h3.2v3.2H32v3.2h3.2v-3.2h3.2v3.2h3.2v3.2h-3.2v3.2h3.2V80h-3.2v3.2h-3.2v3.2H32v3.2h-3.2v3.2h-3.2V96h3.2v3.2h-3.2v3.2h3.2v-3.2H32v3.2h3.2v3.2H32v3.2h3.2v3.2h3.2v3.2h3.2v3.2h-3.2v3.2h-3.2v3.2h3.2v3.2h3.2v3.2h-3.2v3.2h3.2v3.2h-3.2v3.2h3.2v3.2h-3.2v3.2h-3.2v3.2H32v3.2h3.2v3.2H32v3.2h-3.2v-3.2h-3.2v3.2h-3.2v-3.2h-3.2v-3.2H16v3.2h-3.2v3.2H16v-3.2h3.2v3.2h3.2v3.2h3.2v3.2h-3.2v3.2h-3.2v3.2h3.2v3.2h3.2v3.2h3.2v3.2H32v3.2h3.2v3.2zm0-3.2h-1.6v-3.2H32v-3.2h-3.2V176h-3.2v-3.2h-3.2v-3.2h3.2v-3.2h3.2v-3.2h-3.2V160h3.2v3.2H32V160h3.2v-3.2h3.2v-3.2h-3.2v-3.2h3.2v-3.2h3.2V144h3.2v-3.2h-3.2v-3.2h3.2v-3.2h-3.2v-3.2h3.2V128H48v-3.2h-3.2v-3.2h-3.2v3.2h-3.2v-3.2h3.2v-3.2h3.2v-3.2H48v3.2h-3.2v3.2H48v3.2h3.2v-3.2h3.2v3.2h-3.2v3.2h3.2v3.2h-3.2v3.2H48v3.2h-3.2v3.2H48v3.2h3.2v3.2h3.2v3.2h-3.2v3.2H48v3.2h-3.2v-3.2H48v-3.2h-3.2v-3.2h-3.2v3.2h-3.2v3.2h3.2v3.2h-3.2v3.2h-3.2v3.2H32v3.2h3.2v3.2H32v3.2h3.2v3.2H32v3.2h3.2v3.2h3.2v3.2zm-6.4-9.6H32v-3.2h-3.2v-3.2H32v-3.2h-3.2v3.2h-3.2v3.2h3.2v3.2zm19.2-25.6h1.6v-3.2H48V144h-3.2v3.2H48v3.2zm-3.2-16H48v-3.2h3.2V128H48v3.2h-3.2v3.2zm19.2 22.4H64v-3.2h3.2v3.2zm6.4 0h-1.6v-3.2h3.2v3.2zM40 112h-1.6v-3.2h-3.2v-3.2h3.2v-3.2h-3.2v-3.2H32V96h-3.2v-3.2H32v-3.2h3.2v-3.2h3.2v-3.2h3.2V80h3.2v-3.2h-3.2v-3.2h3.2v-3.2H48v3.2h-3.2v3.2H48V80h-3.2v3.2H48v3.2h-3.2v-3.2h-3.2v3.2h-3.2v3.2h3.2v3.2h3.2v-3.2H48v3.2h-3.2V96H48v3.2h-3.2V96h-3.2v3.2h-3.2v3.2h3.2v3.2h3.2v-3.2H48v3.2h-3.2v3.2H48v3.2h-3.2v-3.2h-3.2v3.2zm0-3.2h1.6v-3.2h-3.2v3.2zm-3.2-9.6h1.6V96h3.2v-3.2h-3.2v-3.2h-3.2v3.2H32V96h3.2v3.2zm-22.4 86.4H16v-3.2h-3.2v3.2zm0-12.8H16v-3.2h-3.2v3.2zm70.4-19.2h1.6v-3.2h3.2v-3.2h3.2V144h-3.2v3.2h-3.2V144h-3.2v3.2h3.2v3.2h-3.2v3.2zM72 147.2h1.6V144h-3.2v3.2zm6.4 0H80V144h-3.2v3.2zm-64-76.8H16v-3.2h-3.2v3.2zm44.8 0h1.6v-3.2h-3.2v3.2zm6.4 0h1.6v-3.2h3.2V64h3.2v-3.2h3.2v-3.2h-3.2v3.2h-3.2V64h-3.2v3.2H64v3.2zM27.2 64h1.6v-3.2h-3.2v-3.2h3.2v-3.2H32v3.2h3.2v-3.2H32v-3.2h3.2V48H32v-3.2h3.2v-3.2h3.2v3.2h3.2v-3.2h-3.2v-3.2h3.2v-3.2h3.2v3.2H48v-3.2h3.2V32h3.2v-3.2h3.2V32h3.2v-3.2H64V32h3.2v-3.2H64v-3.2h3.2v-3.2H64v-3.2h3.2V16h3.2v-3.2h3.2V9.6h-3.2v3.2h-3.2V9.6H64v3.2h-3.2V9.6h-3.2v3.2h-3.2V9.6h-3.2v3.2H48V16h-3.2v3.2h-3.2V16h-3.2v-3.2h-3.2V16H32v3.2h-3.2V16h-3.2v-3.2h-3.2V16h-3.2v3.2h3.2v3.2h3.2v3.2h-3.2v3.2h-3.2V32h3.2v3.2h3.2v3.2h-3.2v3.2h-3.2v3.2h3.2V48h3.2v3.2h-3.2v3.2h-3.2v3.2h3.2v3.2h3.2V64zM24 57.6h-1.6v-3.2h3.2v-3.2h3.2V48h-3.2v-3.2h-3.2v-3.2h3.2v-3.2h3.2v-3.2h-3.2V32h-3.2v-3.2h3.2v-3.2h3.2v3.2H32v-3.2h3.2v-3.2H32v-3.2h3.2V16h3.2v3.2h3.2v3.2h3.2v-3.2H48V16h3.2v-3.2h3.2V16h3.2v-3.2h3.2V16H64v-3.2h3.2V16H64v3.2h-3.2v3.2H64v3.2h-3.2v3.2h-3.2v-3.2h-3.2v3.2h-3.2V32H48v3.2h-3.2V32h-3.2v3.2h-3.2v3.2h-3.2v3.2H32v3.2h-3.2V48H32v3.2h-3.2v3.2h-3.2v3.2zm3.2-12.8h1.6v-3.2H32v-3.2h3.2v-3.2h3.2V32h3.2v-3.2h3.2V32H48v-3.2h3.2v-3.2h3.2v-3.2h3.2v3.2h3.2v-3.2h-3.2v-3.2h3.2V16h-3.2v3.2h-3.2V16h-3.2v3.2H48v3.2h-3.2v3.2h-3.2v-3.2h-3.2v-3.2h-3.2v3.2h3.2v3.2h-3.2v3.2H32V32h-3.2v-3.2h-3.2V32h3.2v3.2H32v3.2h-3.2v3.2h-3.2v3.2zm6.4-9.6H32V32h3.2v-3.2h3.2v-3.2h3.2v3.2h-3.2V32h-3.2v3.2zm12.8-6.4h-1.6v-3.2H48v-3.2h3.2v-3.2h3.2v3.2h-3.2v3.2H48v3.2zm-19.2-6.4h-1.6v-3.2h-3.2V16h3.2v3.2h3.2v3.2zM14.4 57.6H16v-3.2h-3.2v3.2zm0-25.6H16v-3.2h-3.2V32zm0-12.8H16V16h-3.2v-3.2H9.6V16h3.2v3.2zm64-6.4H80V9.6h-3.2v3.2zm6.4 0h1.6V9.6h-3.2v3.2zm6.4 0h1.6V9.6h-3.2v3.2zM113.6 288H112v-3.2h-3.2v-3.2h-3.2v3.2h-3.2v-3.2h3.2v-3.2h3.2v-3.2h3.2V272h3.2v-3.2H112v-3.2h-3.2v-3.2h-3.2v3.2h-3.2v-3.2h3.2v-3.2h-3.2V256h3.2v3.2h3.2V256h3.2v3.2h-3.2v3.2h3.2v3.2h3.2v-3.2h3.2v3.2h-3.2v3.2h3.2v3.2h3.2v-3.2h3.2v3.2h3.2v-3.2h3.2v3.2h3.2v-3.2h3.2v3.2h3.2v-3.2h3.2v3.2h3.2v-3.2h3.2v3.2h-3.2v3.2H144v3.2h-3.2v-3.2h-3.2v3.2h-3.2v-3.2h-3.2v3.2H128v3.2h-3.2v-3.2h-3.2v-3.2h-3.2v3.2h-3.2v3.2H112v3.2h3.2v3.2zm-3.2-6.4h1.6v-3.2h-3.2v3.2zm6.4-6.4h1.6V272h-3.2v3.2zm6.4 0h1.6V272h-3.2v3.2zm6.4 0h1.6V272H128v3.2zm6.4 0h1.6V272h-3.2v3.2zm6.4 0h1.6V272h-3.2v3.2zm144 12.8h-1.6v-3.2h-3.2v-3.2h-3.2v-3.2h-3.2v-3.2H272V272h-3.2v-3.2h-3.2v-3.2h-3.2v-3.2h-3.2v-3.2H256V256h-3.2v-3.2h-3.2v-3.2h3.2v-3.2h-3.2v-3.2h3.2V240h-3.2v-3.2h-3.2v3.2h-3.2v-3.2h3.2v-3.2h-3.2v-3.2h3.2v3.2h3.2v-3.2h3.2v-3.2h-3.2V224h-3.2v3.2h-3.2V224h3.2v-3.2h-3.2v-3.2H240v3.2h-3.2v3.2h3.2v3.2h-3.2V224h-3.2v3.2h-3.2V224h3.2v-3.2h-3.2v-3.2h-3.2v3.2H224v3.2h3.2v3.2H224V224h-3.2v3.2h-3.2V224h3.2v-3.2h-3.2v-3.2h-3.2v3.2h-3.2v-3.2h3.2v-3.2h-3.2v-3.2H208v3.2h-3.2v-3.2h3.2V208h-3.2v-3.2h3.2v3.2h3.2v-3.2h3.2v3.2h-3.2v3.2h3.2v3.2h3.2v-3.2h3.2V208h-3.2v-3.2h3.2v3.2h3.2v-3.2h3.2v-3.2H224v-3.2h-3.2v3.2h-3.2v-3.2h3.2v-3.2h-3.2V192h3.2v3.2h3.2V192h3.2v3.2H224v3.2h3.2v3.2h3.2v-3.2h3.2v3.2h-3.2v3.2h3.2v3.2h3.2v-3.2h3.2v3.2h-3.2v3.2h3.2v3.2h3.2v-3.2h3.2V208h-3.2v-3.2h3.2v3.2h3.2v-3.2h3.2v-3.2h-3.2v-3.2h-3.2v3.2h-3.2v-3.2h3.2v-3.2h-3.2V192h3.2v3.2h3.2V192h3.2v3.2h-3.2v3.2h3.2v3.2h3.2v-3.2h3.2v3.2H256v3.2h3.2v3.2h3.2v-3.2h3.2v3.2h-3.2v3.2h3.2v3.2h3.2v-3.2h3.2V208h-3.2v-3.2h3.2v3.2h3.2v-3.2h3.2v3.2h-3.2v3.2h3.2v3.2h3.2v-3.2h3.2v3.2h-3.2v3.2h3.2v3.2h-3.2v-3.2h-3.2v3.2h-3.2v3.2h3.2v3.2h3.2V224h3.2v3.2h-3.2v3.2h3.2v3.2h3.2v3.2h-3.2v3.2h-3.2v3.2h3.2v3.2h-3.2v3.2h3.2v3.2h-3.2v3.2h3.2v3.2h3.2v3.2h-3.2v3.2h3.2v3.2h-3.2v3.2h3.2v3.2h-3.2v3.2h-3.2v3.2h3.2v3.2h3.2v3.2zm-6.4-9.6h1.6v-3.2h3.2V272h-3.2v-3.2h3.2v-3.2h-3.2v-3.2h3.2v-3.2h-3.2V256h-3.2v-3.2h3.2v-3.2h-3.2v-3.2h3.2v-3.2h-3.2V240h3.2v-3.2h3.2v-3.2h-3.2v-3.2h-3.2v-3.2h-3.2V224H272v-3.2h3.2v-3.2h3.2v-3.2h-3.2v-3.2H272v3.2h-3.2v3.2h-3.2v-3.2h-3.2v-3.2h-3.2V208H256v-3.2h-3.2v3.2h-3.2v3.2h-3.2v3.2h-3.2v3.2h3.2v3.2h3.2v3.2h3.2v3.2h3.2v3.2h-3.2v3.2h-3.2v3.2h3.2v3.2h3.2v3.2h-3.2v3.2h3.2v3.2h-3.2v3.2h3.2v3.2h3.2v3.2h3.2v3.2h3.2v3.2h3.2v3.2h3.2v3.2h3.2v3.2h3.2v3.2zm0-3.2h-1.6V272h-3.2v-3.2h3.2v-3.2h-3.2v-3.2H272v3.2h-3.2v-3.2h-3.2v-3.2h-3.2V256h3.2v-3.2h-3.2v-3.2h-3.2v3.2H256v-3.2h3.2v-3.2H256v-3.2h3.2v3.2h3.2v-3.2h3.2V240h-3.2v-3.2h-3.2v3.2H256v-3.2h3.2v-3.2H256v-3.2h3.2v3.2h3.2v-3.2h3.2v-3.2h-3.2V224h-3.2v3.2H256V224h3.2v-3.2H256v-3.2h3.2v3.2h3.2v-3.2h3.2v3.2h-3.2v3.2h3.2v3.2h3.2V224h3.2v3.2h-3.2v3.2h3.2v3.2h3.2v-3.2h3.2v3.2h-3.2v3.2h3.2v3.2h-3.2v-3.2H272v3.2h-3.2v3.2h3.2v3.2h3.2v-3.2h3.2v3.2h-3.2v3.2h3.2v3.2h-3.2v-3.2H272v3.2h-3.2v3.2h3.2v3.2h3.2V256h3.2v3.2h3.2v3.2h-3.2v3.2h3.2v3.2h-3.2v3.2h3.2v3.2zm-9.6-12.8h1.6v-3.2h-3.2V256h-3.2v3.2h3.2v3.2zm6.4 0h1.6v-3.2h-3.2v3.2zm-9.6-9.6h1.6v-3.2h3.2v-3.2h-3.2v-3.2h-3.2v3.2h-3.2v3.2h3.2v3.2zm0-12.8h1.6v-3.2h3.2v-3.2h-3.2v-3.2h-3.2v3.2h-3.2v3.2h3.2v3.2zm-16-19.2h-1.6v-3.2h3.2v3.2zm19.2 0h-1.6v-3.2h3.2v3.2zm-19.2-6.4h-1.6v-3.2h3.2v3.2zm6.4 0H256v-3.2h3.2v3.2zm-35.2 6.4h1.6v-3.2h3.2v-3.2h3.2v3.2h3.2v3.2h3.2v-3.2h3.2v-3.2h-3.2v-3.2h-3.2V208h-3.2v-3.2h-3.2v3.2H224v3.2h-3.2v3.2h-3.2v3.2h3.2v3.2zm3.2-6.4H224v-3.2h3.2v3.2zm6.4 0h-1.6v-3.2h3.2v3.2zM14.4 284.8h-1.6v-3.2H16v3.2zm83.2 0H96v-3.2h3.2v3.2zm83.2 0h-1.6v-3.2h3.2v3.2zm-22.4-9.6h-1.6V272h-3.2v-3.2h3.2v3.2h3.2v-3.2h3.2v-3.2H160v-3.2h3.2v3.2h3.2v-3.2h3.2v3.2h-3.2v3.2h3.2v3.2h3.2v-3.2h3.2v-3.2h-3.2v-3.2h3.2v3.2h3.2v-3.2h3.2v-3.2h-3.2V256h3.2v3.2h3.2V256h3.2v3.2h3.2V256h3.2v3.2h3.2V256h3.2v-3.2h-3.2v-3.2h3.2v3.2h3.2v-3.2h3.2v3.2h-3.2v3.2h9.6v-3.2h-3.2v-3.2h3.2v3.2h3.2v-3.2h3.2v-3.2h-3.2v-3.2h3.2v3.2h3.2v-3.2h3.2v3.2H224v3.2h3.2v3.2H224v3.2h-3.2v3.2h-3.2v3.2h-3.2v3.2h-3.2v3.2H208v-3.2h3.2v-3.2H208v-3.2h-3.2V256h-3.2v3.2h-3.2v3.2h-3.2v3.2H192v-3.2h-3.2v3.2h-3.2v-3.2h-3.2v3.2h-3.2v3.2H176v3.2h-3.2v3.2h-3.2V272h-3.2v-3.2h-3.2v3.2H160v3.2zm28.8-12.8h1.6v-3.2h-3.2v3.2zm6.4 0h1.6v-3.2H192v3.2zm19.2 0h1.6v-3.2h3.2V256h3.2v-3.2h3.2v-3.2h-3.2v3.2h-3.2v3.2h-3.2v3.2h-3.2v3.2zm-89.6 3.2h-1.6v-3.2h3.2v3.2zm12.8 0h-1.6v-3.2h3.2v3.2zm12.8 0h-1.6v-3.2h3.2v3.2zm6.4 0h-1.6v-3.2h3.2v3.2zm-38.4-6.4h-1.6V256h3.2v3.2zm6.4 0h-1.6V256h3.2v3.2zm6.4 0H128V256h3.2v3.2zm6.4 0h-1.6V256h3.2v3.2zm6.4 0h-1.6V256h3.2v3.2zm6.4 0h-1.6V256h3.2v3.2zm6.4 0h-1.6V256h3.2v3.2zm6.4 0H160V256h3.2v3.2zm6.4 0h-1.6V256h3.2v3.2zm6.4 0h-1.6V256h3.2v3.2zm-83.2-6.4h-1.6v-3.2h3.2v3.2zm6.4 0H96v-3.2h3.2v3.2zm6.4 0h-1.6v-3.2h3.2v3.2zm6.4 0h-1.6v-3.2h3.2v3.2zm6.4 0h-1.6v-3.2h3.2v3.2zm6.4 0h-1.6v-3.2h3.2v3.2zm12.8 0h-1.6v-3.2h3.2v3.2zm12.8 0h-1.6v-3.2h3.2v3.2zm12.8 0H160v-3.2h3.2v3.2zm12.8 0h-1.6v-3.2h3.2v3.2zm12.8 0h-1.6v-3.2h3.2v3.2zm-96-6.4h-1.6v-3.2h3.2v3.2zm6.4 0H96v-3.2h3.2v3.2zm6.4 0h-1.6v-3.2h3.2v3.2zm6.4 0h-1.6v-3.2h3.2v3.2zm6.4 0h-1.6v-3.2h3.2v3.2zm6.4 0h-1.6v-3.2h3.2v3.2zm6.4 0H128v-3.2h3.2v3.2zm6.4 0h-1.6v-3.2h3.2v3.2zm6.4 0h-1.6v-3.2h3.2v3.2zm6.4 0h-1.6v-3.2h3.2v3.2zm6.4 0h-1.6v-3.2h3.2v3.2zm6.4 0H160v-3.2h3.2v3.2zm6.4 0h-1.6v-3.2h3.2v3.2zm6.4 0h-1.6v-3.2h3.2v3.2zm6.4 0h-1.6v-3.2h3.2v3.2zm12.8 0H192v-3.2h3.2v3.2zm6.4 0h-1.6v-3.2h3.2v3.2zm6.4 0h-1.6v-3.2h3.2v3.2zm6.4 0h-1.6v-3.2h3.2v3.2zm-128-6.4h-1.6v-3.2h3.2v3.2zm12.8 0H96v-3.2h3.2v3.2zm6.4 0h-1.6v-3.2h3.2v-3.2h-3.2v-3.2h-3.2v3.2H96v-3.2h3.2v-3.2H96V224h-3.2v3.2h-3.2V224h3.2v-3.2h-3.2v-3.2h-3.2v3.2h-3.2v-3.2h3.2v-3.2h-3.2v-3.2H80v3.2h-3.2v-3.2H80V208h-3.2v-3.2H80v3.2h3.2v-3.2h3.2v3.2h-3.2v3.2h3.2v3.2h3.2v-3.2h3.2V208h-3.2v-3.2h3.2v3.2H96v-3.2h3.2v3.2H96v3.2h3.2v3.2h3.2v-3.2h3.2V208h-3.2v-3.2h3.2v3.2h3.2v-3.2h3.2v3.2h3.2v-3.2h3.2v3.2h3.2v-3.2h3.2v3.2h-3.2v3.2h3.2v3.2h-3.2v-3.2h-3.2v3.2h-3.2v3.2h3.2v3.2h3.2v-3.2h3.2v3.2h3.2v-3.2h3.2v3.2h3.2v-3.2h3.2v3.2h3.2v-3.2h3.2v3.2h3.2v-3.2h3.2v3.2h3.2v-3.2h3.2v3.2h3.2v-3.2h3.2v-3.2H160v-3.2h-3.2v3.2h-3.2v-3.2h3.2V208h-3.2v-3.2h3.2v3.2h3.2v-3.2h3.2v3.2h3.2v-3.2h3.2v3.2h3.2v-3.2h3.2v3.2h3.2v-3.2h3.2v3.2h3.2v-3.2h3.2v3.2h3.2v-3.2h3.2v3.2h3.2v-3.2h3.2v3.2h-3.2v3.2h3.2v3.2h-3.2v-3.2h-3.2v3.2H192v-3.2h-3.2v3.2h-3.2v3.2h3.2v3.2h-3.2v-3.2h-3.2v3.2h-3.2v3.2h3.2v3.2h-3.2V224H176v3.2h-3.2V224h-3.2v3.2h-3.2V224h-3.2v3.2H160V224h-3.2v3.2h-3.2V224h-3.2v3.2h-3.2V224H144v3.2h-3.2V224h-3.2v3.2h-3.2V224h-3.2v3.2H128v3.2h3.2v3.2h3.2v-3.2h3.2v3.2h-3.2v3.2h3.2v3.2h-3.2v-3.2h-3.2v3.2H128v-3.2h3.2v-3.2H128v-3.2h-3.2v3.2h-3.2v3.2h3.2v3.2h-3.2v-3.2h-3.2v3.2h-3.2v-3.2h3.2v-3.2h-3.2v-3.2H112v3.2h-3.2v3.2h3.2v3.2h-3.2v-3.2h-3.2v3.2zm3.2-6.4h1.6v-3.2h3.2v-3.2h3.2v3.2h3.2v3.2h3.2v-3.2h3.2v-3.2h3.2V224h3.2v-3.2H128v3.2h-3.2v-3.2h-3.2v3.2h-3.2v-3.2h-3.2v-3.2H112v-3.2h3.2v-3.2h3.2V208h-3.2v3.2H112V208h-3.2v3.2h-3.2v3.2h-3.2v3.2h3.2v-3.2h3.2v3.2h3.2v3.2h-3.2v3.2h-3.2v-3.2h-3.2v3.2h-3.2v-3.2H96v3.2h3.2v3.2h3.2v3.2h3.2v3.2zm-3.2-6.4h-1.6V224h3.2v3.2zm6.4 0h-1.6V224h3.2v-3.2h3.2v3.2h3.2v3.2h-3.2V224H112v3.2zm12.8 0h-1.6V224h3.2v3.2zm-12.8-12.8h-1.6v-3.2h3.2v3.2zM136 224h1.6v-3.2h-3.2v3.2zm6.4 0h1.6v-3.2h-3.2v3.2zm6.4 0h1.6v-3.2h-3.2v3.2zm6.4 0h1.6v-3.2h-3.2v3.2zm6.4 0h1.6v-3.2h3.2v3.2h3.2v-3.2h3.2v3.2h3.2v-3.2h3.2v-3.2h3.2v-3.2h-3.2v3.2H176v-3.2h-3.2v-3.2h3.2V208h-3.2v3.2h-3.2V208h-3.2v3.2h-3.2V208H160v3.2h3.2v3.2h3.2v3.2h-3.2v3.2H160v3.2zm6.4-3.2h-1.6v-3.2h3.2v-3.2h-3.2v-3.2h3.2v3.2h3.2v3.2h3.2v3.2h-3.2v-3.2h-3.2v3.2zm-76.8-3.2h1.6v-3.2H96v3.2h3.2v-3.2H96v-3.2h-3.2v3.2h-3.2v3.2zm89.6-6.4h1.6V208h-3.2v3.2zm6.4 0h1.6V208h-3.2v3.2zm6.4 0h1.6V208H192v3.2zM142.4 240h-1.6v-3.2h3.2v-3.2h-3.2v-3.2h3.2v3.2h3.2v-3.2h3.2v3.2h-3.2v3.2h3.2v3.2h-3.2v-3.2H144v3.2zm12.8 0h-1.6v-3.2h3.2v-3.2h-3.2v-3.2h3.2v3.2h3.2v-3.2h3.2v3.2H160v3.2h3.2v3.2H160v-3.2h-3.2v3.2zm12.8 0h-1.6v-3.2h3.2v3.2zm6.4 0h-1.6v-3.2h3.2v3.2zm6.4 0h-1.6v-3.2h3.2v3.2zm6.4 0h-1.6v-3.2h3.2v3.2zm12.8 0h-1.6v-3.2h3.2v3.2zm6.4 0h-1.6v-3.2h3.2v-3.2h-3.2v-3.2h3.2v3.2h3.2v-3.2h3.2v3.2h-3.2v3.2h3.2v3.2h-3.2v-3.2H208v3.2zm12.8 0h-1.6v-3.2h3.2v3.2zm6.4 0H224v-3.2h3.2v3.2zm-147.2-6.4h-1.6v-3.2H80v3.2zm6.4 0h-1.6v-3.2h3.2v3.2zm6.4 0h-1.6v-3.2h3.2v3.2zm76.8 0h-1.6v-3.2h3.2v3.2zm6.4 0h-1.6v-3.2h3.2v3.2zm6.4 0h-1.6v-3.2h3.2v3.2zm6.4 0h-1.6v-3.2h3.2v3.2zm6.4 0H192v-3.2h3.2v3.2zm6.4 0h-1.6v-3.2h3.2v3.2zm19.2 0h-1.6v-3.2h3.2v3.2zm6.4 0H224v-3.2h3.2v3.2zm6.4 0h-1.6v-3.2h3.2v3.2zm6.4 0h-1.6v-3.2h3.2v3.2zm-160-6.4h-1.6V224H80v3.2zm6.4 0h-1.6V224h3.2v3.2zm102.4 0h-1.6V224h3.2v3.2zm12.8 0h-1.6V224h3.2v3.2zm6.4 0h-1.6V224h3.2v3.2zm6.4 0h-1.6V224h3.2v3.2zm-134.4-6.4h-1.6v-3.2H80v3.2zm115.2 0H192v-3.2h3.2v3.2zm6.4 0h-1.6v-3.2h3.2v3.2zm6.4 0h-1.6v-3.2h3.2v3.2zM72 214.4h-1.6v-3.2h3.2v3.2zm57.6 0H128v-3.2h3.2V208H128v-3.2h3.2v3.2h3.2v-3.2h3.2v3.2h-3.2v3.2h3.2v3.2h-3.2v-3.2h-3.2v3.2zm12.8 0h-1.6v-3.2h3.2V208h-3.2v-3.2h3.2v3.2h3.2v-3.2h3.2v3.2h-3.2v3.2h3.2v3.2h-3.2v-3.2H144v3.2zM65.6 208H64v-3.2h3.2v3.2zm6.4 0h-1.6v-3.2h3.2v3.2zm-12.8-6.4h-1.6v-3.2h3.2v3.2zm6.4 0H64v-3.2h3.2v3.2zm6.4 0h-1.6v-3.2h3.2v3.2zm12.8 0h-1.6v-3.2h3.2v3.2zm6.4 0h-1.6v-3.2h3.2v3.2zm6.4 0H96v-3.2h3.2v3.2zm6.4 0h-1.6v-3.2h3.2v3.2zm6.4 0h-1.6v-3.2h3.2v3.2zm6.4 0h-1.6v-3.2h3.2v3.2zm6.4 0h-1.6v-3.2h3.2v3.2zm12.8 0h-1.6v-3.2h3.2v3.2zm6.4 0h-1.6v-3.2h3.2v3.2zm6.4 0h-1.6v-3.2h3.2v3.2zm12.8 0H160v-3.2h3.2v3.2zm6.4 0h-1.6v-3.2h3.2v3.2zm6.4 0h-1.6v-3.2h3.2v3.2zm6.4 0h-1.6v-3.2h3.2v3.2zm6.4 0h-1.6v-3.2h3.2v3.2zm6.4 0H192v-3.2h3.2v3.2zm6.4 0h-1.6v-3.2h3.2v3.2zm6.4 0h-1.6v-3.2h3.2v3.2zm6.4 0h-1.6v-3.2h3.2v3.2zm25.6 0h-1.6v-3.2h3.2v3.2zm25.6 0h-1.6v-3.2h3.2v3.2zm6.4 0h-1.6v-3.2h3.2v-3.2h-3.2V192h3.2v3.2h3.2V192h3.2v-3.2h-3.2v-3.2H272v3.2h-3.2v-3.2h3.2v-3.2h-3.2v-3.2h3.2v3.2h3.2v-3.2h3.2V176h-3.2v-3.2h3.2v3.2h3.2v-3.2h3.2v3.2h-3.2v3.2h3.2v3.2h3.2v3.2h-3.2v3.2h-3.2v3.2h3.2v3.2h-3.2V192h-3.2v3.2h-3.2v3.2h3.2v3.2h-3.2v-3.2H272v3.2zm9.6-12.8h1.6v-3.2h3.2v-3.2h-3.2v-3.2h-3.2v3.2h-3.2v3.2h3.2v3.2zm-227.2 6.4h-1.6V192h3.2v3.2zm6.4 0h-1.6V192h3.2v3.2zm6.4 0H64V192h3.2v3.2zm6.4 0h-1.6V192h3.2v3.2zm6.4 0h-1.6V192H80v3.2zm6.4 0h-1.6V192h3.2v3.2zm6.4 0h-1.6V192h3.2v3.2zm6.4 0H96V192h3.2v3.2zm6.4 0h-1.6V192h3.2v3.2zm6.4 0h-1.6V192h3.2v-3.2h-3.2v-3.2h-3.2v3.2h-3.2v-3.2h3.2v-3.2h-3.2v-3.2h3.2v3.2h3.2v-3.2h3.2v3.2h-3.2v3.2h3.2v3.2h3.2v-3.2h3.2v-3.2h-3.2v-3.2h3.2v3.2h3.2v-3.2h3.2v3.2h-3.2v3.2h3.2v3.2h3.2v-3.2h3.2v-3.2H128v-3.2h3.2v3.2h3.2v-3.2h3.2v3.2h-3.2v3.2h3.2v3.2h3.2v-3.2h3.2v-3.2h-3.2v-3.2h3.2v3.2h3.2v-3.2h3.2v3.2h3.2v-3.2h3.2v3.2h3.2v-3.2h3.2v3.2H160v3.2h3.2v3.2H160v-3.2h-3.2v3.2h-3.2v-3.2h-3.2v3.2h-3.2v-3.2H144v3.2h-3.2v3.2h3.2v3.2h-3.2V192h-3.2v3.2h-3.2V192h-3.2v3.2H128V192h-3.2v3.2h-3.2V192h3.2v-3.2h-3.2v-3.2h-3.2v3.2h-3.2v3.2h3.2v3.2h-3.2V192H112v3.2zm19.2-3.2h1.6v-3.2h3.2v3.2h3.2v-3.2h-3.2v-3.2h-3.2v3.2H128v3.2zm19.2-6.4h1.6v-3.2h-3.2v3.2zm6.4 0h1.6v-3.2h-3.2v3.2zm-6.4 9.6h-1.6V192h3.2v3.2zm6.4 0h-1.6V192h3.2v3.2zm6.4 0H160V192h3.2v3.2zm6.4 0h-1.6V192h3.2v3.2zm6.4 0h-1.6V192h3.2v3.2zm6.4 0h-1.6V192h3.2v3.2zm6.4 0h-1.6V192h3.2v3.2zm6.4 0H192V192h3.2v3.2zm6.4 0h-1.6V192h3.2v3.2zm6.4 0h-1.6V192h3.2v3.2zm6.4 0h-1.6V192h3.2v3.2zm19.2 0h-1.6V192h3.2v3.2zm6.4 0h-1.6V192h3.2v3.2zm19.2 0H256V192h3.2v3.2zm6.4 0h-1.6V192h3.2v3.2zm-211.2-6.4h-1.6v-3.2h3.2v3.2zm6.4 0h-1.6v-3.2h3.2v3.2zm12.8 0h-1.6v-3.2h3.2v3.2zm12.8 0h-1.6v-3.2h3.2v3.2zm12.8 0H96v-3.2h3.2v3.2zm70.4 0h-1.6v-3.2h3.2v3.2zm6.4 0h-1.6v-3.2h3.2v3.2zm6.4 0h-1.6v-3.2h3.2v3.2zm6.4 0h-1.6v-3.2h3.2v3.2zm12.8 0h-1.6v-3.2h3.2v3.2zm6.4 0h-1.6v-3.2h3.2v3.2zm6.4 0h-1.6v-3.2h3.2v3.2zm12.8 0H224v-3.2h3.2v3.2zm6.4 0h-1.6v-3.2h3.2v3.2zm6.4 0h-1.6v-3.2h3.2v3.2zm6.4 0h-1.6v-3.2h3.2v-3.2h-3.2v-3.2h3.2v3.2h3.2v-3.2h3.2v3.2h-3.2v3.2h3.2v3.2h-3.2v-3.2h-3.2v3.2zm12.8 0H256v-3.2h3.2v3.2zm6.4 0h-1.6v-3.2h3.2v3.2zm-211.2-6.4h-1.6v-3.2h3.2v3.2zm6.4 0h-1.6v-3.2h3.2v3.2zm6.4 0H64v-3.2h3.2v3.2zm6.4 0h-1.6v-3.2h3.2v3.2zm6.4 0h-1.6v-3.2H80v3.2zm6.4 0h-1.6v-3.2h3.2v3.2zm6.4 0h-1.6v-3.2h3.2v3.2zm6.4 0H96v-3.2h3.2v3.2zm70.4 0h-1.6v-3.2h3.2v3.2zm6.4 0h-1.6v-3.2h3.2v3.2zm6.4 0h-1.6v-3.2h3.2v3.2zm6.4 0h-1.6v-3.2h3.2v3.2zm6.4 0H192v-3.2h3.2v3.2zm6.4 0h-1.6v-3.2h3.2v3.2zm6.4 0h-1.6v-3.2h3.2v3.2zm6.4 0h-1.6v-3.2h3.2v3.2zm6.4 0h-1.6v-3.2h3.2v3.2zm6.4 0H224v-3.2h3.2v3.2zm6.4 0h-1.6v-3.2h3.2v3.2zm6.4 0h-1.6v-3.2h3.2v3.2zm19.2 0H256v-3.2h3.2v3.2zm6.4 0h-1.6v-3.2h3.2v3.2zM52.8 176h-1.6v-3.2h3.2v3.2zm6.4 0h-1.6v-3.2h3.2v3.2zm6.4 0H64v-3.2h3.2v3.2zm6.4 0h-1.6v-3.2h3.2v3.2zm12.8 0h-1.6v-3.2h3.2v3.2zm12.8 0H96v-3.2h3.2v3.2zm6.4 0h-1.6v-3.2h3.2v3.2zm6.4 0h-1.6v-3.2h3.2v3.2zm6.4 0h-1.6v-3.2h3.2v-3.2h-3.2v-3.2H112v3.2h-3.2v-3.2h3.2v-3.2h-3.2V160h-3.2v3.2h-3.2V160h3.2v-3.2h-3.2v-3.2h3.2v3.2h3.2v-3.2h3.2v3.2h-3.2v3.2h3.2v3.2h3.2V160h3.2v-3.2h-3.2v-3.2h3.2v3.2h3.2v-3.2h3.2v3.2h-3.2v3.2h3.2v3.2h-3.2V160h-3.2v3.2h-3.2v3.2h3.2v3.2h3.2v-3.2h3.2v3.2h-3.2v3.2h3.2v3.2h-3.2v-3.2h-3.2v3.2zm19.2 0h-1.6v-3.2h3.2v3.2zm12.8 0h-1.6v-3.2h3.2v3.2zm12.8 0H160v-3.2h3.2v3.2zm6.4 0h-1.6v-3.2h3.2v3.2zm6.4 0h-1.6v-3.2h3.2v3.2zm12.8 0h-1.6v-3.2h3.2v3.2zm12.8 0h-1.6v-3.2h3.2v3.2zm12.8 0h-1.6v-3.2h3.2v3.2zm12.8 0H224v-3.2h3.2v3.2zm12.8 0h-1.6v-3.2h3.2v3.2zm6.4 0h-1.6v-3.2h3.2v-3.2h-3.2v-3.2h3.2v3.2h3.2v-3.2h3.2v3.2h-3.2v3.2h3.2v3.2h-3.2v-3.2h-3.2v3.2zm12.8 0H256v-3.2h3.2v-3.2H256v-3.2h3.2v-3.2H256V160h3.2v-3.2H256v-3.2h3.2v3.2h3.2v-3.2h3.2v3.2h-3.2v3.2h3.2v3.2h3.2V160h3.2v3.2h-3.2v3.2h3.2v3.2h-3.2v-3.2h-3.2v3.2h-3.2v3.2h3.2v3.2h-3.2v-3.2h-3.2v3.2zm3.2-6.4h1.6v-3.2h3.2v-3.2h-3.2V160h-3.2v3.2h3.2v3.2h-3.2v3.2zm-208 0h-1.6v-3.2h3.2v3.2zm6.4 0h-1.6v-3.2h3.2v3.2zm6.4 0H64v-3.2h3.2v3.2zm6.4 0h-1.6v-3.2h3.2v3.2zm6.4 0h-1.6v-3.2H80v3.2zm6.4 0h-1.6v-3.2h3.2v3.2zm6.4 0h-1.6v-3.2h3.2v3.2zm6.4 0H96v-3.2h3.2v3.2zm6.4 0h-1.6v-3.2h3.2v3.2zm25.6 0H128v-3.2h3.2v3.2zm12.8 0h-1.6v-3.2h3.2v3.2zm6.4 0h-1.6v-3.2h3.2v3.2zm6.4 0h-1.6v-3.2h3.2v3.2zm6.4 0H160v-3.2h3.2v3.2zm6.4 0h-1.6v-3.2h3.2v3.2zm6.4 0h-1.6v-3.2h3.2v3.2zm6.4 0h-1.6v-3.2h3.2v3.2zm12.8 0H192v-3.2h3.2v3.2zm6.4 0h-1.6v-3.2h3.2v3.2zm6.4 0h-1.6v-3.2h3.2v3.2zm12.8 0h-1.6v-3.2h3.2v3.2zm6.4 0H224v-3.2h3.2v3.2zm6.4 0h-1.6v-3.2h3.2v3.2zm6.4 0h-1.6v-3.2h3.2v3.2zm38.4 0h-1.6v-3.2h3.2v3.2zm6.4 0h-1.6v-3.2h3.2v3.2zm-192-6.4h-1.6V160h3.2v3.2zm6.4 0H96V160h3.2v3.2zm32 0H128V160h3.2v3.2zm6.4 0h-1.6V160h3.2v3.2zm12.8 0h-1.6V160h3.2v3.2zm6.4 0h-1.6V160h3.2v3.2zm6.4 0H160V160h3.2v3.2zm12.8 0h-1.6V160h3.2v3.2zm6.4 0h-1.6V160h3.2v3.2zm6.4 0h-1.6V160h3.2v3.2zm12.8 0h-1.6V160h3.2v3.2zm12.8 0h-1.6V160h3.2v3.2zm12.8 0H224V160h3.2v3.2zm12.8 0h-1.6V160h3.2v3.2zm6.4 0h-1.6V160h3.2v3.2zm6.4 0h-1.6V160h3.2v3.2zm25.6 0h-1.6V160h3.2v3.2zm6.4 0h-1.6V160h3.2v-3.2h-3.2v-3.2h-3.2v3.2h-3.2v-3.2H272v3.2h-3.2v-3.2h3.2v-3.2h-3.2v-3.2h3.2V144h-3.2v-3.2h-3.2v3.2h-3.2v3.2h3.2v3.2h-3.2v-3.2h-3.2v3.2H256v-3.2h3.2V144H256v-3.2h-3.2v3.2h-3.2v-3.2h3.2v-3.2h-3.2v-3.2h-3.2v-3.2h-3.2V128h3.2v-3.2h-3.2v-3.2h3.2v-3.2h-3.2v-3.2H240v3.2h-3.2v-3.2h3.2V112h-3.2v-3.2h-3.2v3.2h-3.2v-3.2h3.2v-3.2h-3.2v-3.2h3.2v3.2h3.2v-3.2h3.2v3.2h-3.2v3.2h3.2v3.2h3.2v-3.2h3.2v-3.2h-3.2v-3.2h3.2v3.2h3.2v-3.2h3.2v-3.2h-3.2V96h-3.2v3.2h-3.2V96h3.2v-3.2h-3.2v-3.2h3.2v3.2h3.2v-3.2h3.2v-3.2h-3.2v-3.2h-3.2v3.2h-3.2v-3.2h3.2V80h-3.2v-3.2h3.2V80h3.2v-3.2h3.2v-3.2h-3.2v-3.2h-3.2v3.2h-3.2v-3.2H240v3.2h-3.2v-3.2h-3.2v3.2h-3.2v-3.2h3.2v-3.2h-3.2V64h-3.2v3.2H224V64h3.2v-3.2H224v-3.2h-3.2v3.2h-3.2V64h3.2v3.2h-3.2V64h-3.2v3.2h-3.2V64h3.2v-3.2h-3.2v-3.2H208v3.2h-3.2V64h3.2v3.2h-3.2V64h-3.2v3.2h-3.2v3.2h3.2v3.2h-3.2v-3.2h-3.2v-3.2H192V64h-3.2v3.2h-3.2V64h3.2v-3.2h-3.2v-3.2h-3.2v3.2h-3.2V64h3.2v3.2h-3.2V64H176v3.2h-3.2v3.2h3.2v3.2h-3.2v-3.2h-3.2v3.2h-3.2v-3.2h3.2v-3.2h-3.2V64h-3.2v3.2H160V64h3.2v-3.2H160v-3.2h-3.2v3.2h-3.2V64h3.2v3.2h-3.2V64h-3.2v3.2h-3.2V64h3.2v-3.2h-3.2v-3.2H144v3.2h-3.2V64h3.2v3.2h-3.2V64h-3.2v3.2h-3.2V64h3.2v-3.2h-3.2v-3.2h-3.2v3.2H128V64h3.2v3.2H128V64h-3.2v3.2h-3.2v3.2h3.2v3.2h-3.2v-3.2h-3.2v3.2h-3.2v-3.2h3.2v-3.2h-3.2V64H112v3.2h-3.2V64h3.2v-3.2h-3.2v-3.2h-3.2v3.2h-3.2v-3.2h-3.2v3.2H96v-3.2h3.2v-3.2h3.2v-3.2h3.2V48h3.2v-3.2h3.2V48h3.2v-3.2h3.2V48h3.2v-3.2h3.2V48h3.2v-3.2h3.2V48h3.2v-3.2h3.2V48h3.2v-3.2h3.2V48h3.2v-3.2h3.2V48h3.2v-3.2h3.2V48h3.2v-3.2h3.2v-3.2h3.2v-3.2h-3.2v-3.2H160V32h-3.2v-3.2h-3.2v-3.2h-3.2v3.2h-3.2V32H144v-3.2h-3.2v-3.2h-3.2v-3.2h-3.2v-3.2h-3.2V16H128v-3.2h3.2V9.6h3.2V6.4h3.2v3.2h3.2V6.4h3.2v3.2h3.2V6.4h3.2v3.2h3.2V6.4h3.2v3.2h3.2V6.4h3.2v3.2h3.2V6.4h3.2v3.2h3.2V6.4h3.2v3.2h3.2V6.4h3.2v3.2h3.2V6.4h3.2v3.2h3.2V6.4h3.2v3.2H192v3.2h3.2V16h3.2v-3.2h3.2V9.6h-3.2V6.4h3.2v3.2h3.2V6.4h3.2v3.2h3.2V6.4h3.2v3.2h3.2V6.4h3.2v3.2h-3.2v3.2h3.2V16h3.2v-3.2h3.2V9.6H224V6.4h3.2v3.2h3.2V6.4h3.2v3.2h-3.2v3.2h3.2V16h-3.2v3.2h-3.2v3.2H224v-3.2h-3.2v3.2h-3.2v3.2h3.2v3.2h3.2v-3.2h3.2v3.2H224V32h3.2v3.2h3.2V32h3.2v3.2h-3.2v3.2h3.2v3.2h3.2v-3.2h3.2v3.2h-3.2v3.2h3.2V48h3.2v-3.2h3.2V48h-3.2v3.2h3.2v3.2h3.2v-3.2h3.2v3.2h3.2v-3.2h3.2v3.2h3.2v-3.2h3.2v3.2h3.2v-3.2h3.2v3.2h3.2v-3.2h3.2v3.2h-3.2v3.2h3.2v3.2h3.2v-3.2h3.2v-3.2h-3.2v-3.2h3.2v3.2h3.2v3.2h-3.2v3.2h-3.2V64h3.2v3.2h-3.2v3.2h3.2v3.2h-3.2v3.2h3.2V80h3.2v3.2h-3.2v3.2h3.2v3.2h-3.2v3.2h3.2V96h-3.2v3.2h-3.2v3.2h3.2v3.2h3.2v3.2h-3.2v3.2h3.2v3.2h-3.2v3.2h3.2v3.2h-3.2v3.2h-3.2v3.2h3.2v3.2h3.2v3.2h-3.2v3.2h-3.2v-3.2h-3.2v3.2h-3.2v-3.2H272v3.2h-3.2v3.2h3.2v3.2h3.2v-3.2h3.2v3.2h3.2v-3.2h3.2v3.2h3.2v3.2h-3.2v3.2h-3.2v3.2h3.2v3.2h3.2v3.2h-3.2v3.2zm-6.4-9.6h1.6v-3.2h-3.2v-3.2h3.2V144h-3.2v3.2H272v3.2h3.2v3.2zm6.4-6.4h1.6V144h-3.2v3.2zm-22.4-3.2h1.6v-3.2h3.2v-3.2h3.2v-3.2h3.2v-3.2h3.2v3.2h3.2v-3.2h3.2v3.2h3.2v-3.2h-3.2V128h-3.2v-3.2h3.2v-3.2h3.2v-3.2h-3.2v-3.2h3.2V112h-3.2v-3.2h3.2v-3.2h-3.2v-3.2h-3.2v-3.2h3.2V96h3.2v-3.2h-3.2v-3.2h3.2v-3.2h-3.2v-3.2h3.2V80h-3.2v-3.2h-3.2v-3.2h3.2v-3.2h-3.2v-3.2h3.2V64h-3.2v-3.2h-3.2v-3.2H272v-3.2h-3.2v3.2h-3.2v-3.2h-3.2v3.2h-3.2v-3.2H256v3.2h-3.2v-3.2h-3.2v3.2h3.2v3.2h-3.2V64h3.2v-3.2h3.2V64h3.2v-3.2h3.2V64h3.2v3.2h-3.2v3.2h-3.2v-3.2H256v3.2h3.2v3.2H256v3.2h-3.2V80h-3.2v3.2h3.2v3.2h3.2v3.2h-3.2v3.2h-3.2V96h3.2v3.2h3.2v3.2h-3.2v3.2h-3.2v3.2h-3.2v3.2h-3.2v3.2h3.2V112h3.2v3.2h3.2v3.2h-3.2v3.2h-3.2v3.2h3.2v3.2h-3.2v3.2h3.2v3.2h3.2v3.2h3.2v3.2h3.2v3.2zm-3.2-6.4H256v-3.2h-3.2v-3.2h-3.2V128h3.2v-3.2h-3.2v-3.2h3.2v-3.2h3.2v-3.2h-3.2V112h-3.2v-3.2h3.2v-3.2h3.2v-3.2h3.2v3.2h3.2v-3.2h3.2v-3.2h-3.2V96h-3.2v3.2H256V96h3.2v-3.2H256v-3.2h3.2v-3.2H256v-3.2h-3.2V80h3.2v-3.2h3.2v-3.2h3.2v-3.2h3.2v-3.2h3.2V64h-3.2v-3.2h-3.2v-3.2h3.2v3.2h3.2v-3.2h3.2v3.2h-3.2V64h3.2v3.2h3.2V64h3.2v3.2h-3.2v3.2h3.2v3.2h-3.2v-3.2H272v3.2h-3.2v3.2h3.2V80h3.2v-3.2h3.2V80h3.2v3.2h-3.2v3.2h3.2v3.2h-3.2v3.2h3.2V96h-3.2v3.2h-3.2V96H272v3.2h-3.2v3.2h3.2v3.2h3.2v-3.2h3.2v3.2h3.2v3.2h-3.2v3.2h3.2v3.2h-3.2v3.2h3.2v3.2h-3.2v3.2h-3.2v-3.2H272v3.2h-3.2v3.2h3.2v3.2h-3.2v3.2h-3.2v3.2h-3.2v-3.2h-3.2v3.2zm0-3.2h1.6v-3.2h3.2v3.2h3.2v-3.2h3.2V128h-3.2v-3.2h3.2v-3.2h3.2v-3.2h3.2v3.2h3.2v-3.2h-3.2v-3.2h3.2V112h-3.2v-3.2h3.2v-3.2h-3.2v3.2H272v-3.2h-3.2v-3.2h-3.2v3.2h-3.2v3.2h-3.2v-3.2H256v3.2h-3.2v3.2h3.2v3.2h3.2v3.2H256v3.2h3.2v3.2H256v3.2h-3.2v3.2h3.2v3.2zm0-3.2H256V128h3.2v-3.2h3.2v-3.2h-3.2v-3.2h3.2v-3.2h-3.2V112H256v-3.2h3.2v3.2h3.2v-3.2h3.2v-3.2h3.2v3.2h3.2v3.2h-3.2v3.2h3.2v3.2h-3.2v3.2h-3.2v3.2h-3.2v3.2h3.2v3.2h-3.2V128h-3.2v3.2zm6.4-9.6h1.6v-3.2h3.2v-3.2h-3.2V112h3.2v-3.2h-3.2v3.2h-3.2v3.2h3.2v3.2h-3.2v3.2zm3.2-22.4h1.6V96h3.2v-3.2h3.2V96h3.2v-3.2h-3.2v-3.2h3.2v-3.2h-3.2v-3.2h3.2V80h-3.2v3.2H272V80h-3.2v-3.2h-3.2v-3.2h3.2v-3.2h3.2v-3.2h-3.2v3.2h-3.2v3.2h-3.2v3.2h3.2V80h-3.2v3.2h-3.2V80H256v3.2h3.2v3.2h3.2v3.2h-3.2v3.2h3.2V96h3.2v3.2zm-3.2-6.4h-1.6v-3.2h3.2v-3.2h-3.2v-3.2h3.2V80h3.2v3.2h3.2v3.2h-3.2v3.2h3.2v3.2h-3.2v-3.2h-3.2v3.2zm3.2-6.4h1.6v-3.2h-3.2v3.2zm9.6 44.8h-1.6V128h3.2v3.2zm-19.2-70.4H256v-3.2h3.2v3.2zm-19.2 9.6h1.6v-3.2h3.2v3.2h3.2v-3.2h-3.2V64h3.2v-3.2h-3.2V64H240v-3.2h-3.2V64h3.2v3.2h-3.2v3.2zm12.8 0h1.6v-3.2h-3.2v3.2zM120 67.2h1.6V64h3.2v-3.2h3.2v-3.2h3.2v-3.2H128v-3.2h3.2V48H128v3.2h-3.2V48h-3.2v3.2h3.2v3.2h-3.2v3.2h-3.2v-3.2h-3.2v3.2H112v-3.2h-3.2v3.2h3.2v3.2h3.2V64h3.2v3.2zm0-3.2h-1.6v-3.2h-3.2v-3.2h3.2v3.2h3.2v-3.2h3.2v-3.2h3.2v3.2h-3.2v3.2h-3.2V64zm51.2 3.2h1.6V64h3.2v-3.2h3.2v-3.2h3.2v-3.2h3.2v3.2h3.2v3.2h3.2V64h3.2v3.2h3.2V64h3.2v-3.2h3.2v-3.2h3.2v-3.2h3.2v3.2h3.2v3.2h3.2v-3.2h3.2v-3.2h-3.2v-3.2h3.2V48h-3.2v3.2h-3.2V48h-3.2v-3.2h3.2v-3.2h-3.2v3.2H208v-3.2h-3.2v-3.2h3.2v-3.2h-3.2v3.2h-3.2v-3.2h-3.2v3.2h3.2v3.2h-3.2v3.2h-3.2v-3.2H192v3.2h-3.2v-3.2h-3.2v-3.2h3.2v-3.2h-3.2v3.2h-3.2v-3.2h-3.2v3.2H176v-3.2h-3.2V32h3.2v-3.2h-3.2V32h-3.2v-3.2h-3.2v-3.2h3.2v-3.2h3.2v3.2h3.2v-3.2h-3.2v-3.2h3.2V16h3.2v3.2h3.2v3.2h-3.2v3.2h3.2v-3.2h3.2v3.2h3.2v-3.2h3.2v3.2h3.2v-3.2h3.2v3.2h3.2v3.2h-3.2V32h3.2v-3.2h3.2V32h3.2v-3.2h3.2V32h3.2v-3.2h3.2V32h3.2v3.2h-3.2v3.2h3.2v-3.2h3.2v3.2h3.2v3.2H224v3.2h3.2v-3.2h3.2v3.2h3.2V48h-3.2v3.2h3.2V48h3.2v3.2h3.2V48h-3.2v-3.2h-3.2v-3.2h-3.2v-3.2h-3.2v-3.2H224V32h-3.2v-3.2h-3.2v-3.2h-3.2v-3.2h3.2v-3.2h3.2V16h-3.2v-3.2h-3.2V9.6h-3.2v3.2H208V9.6h-3.2v3.2h-3.2V16h-3.2v3.2h-3.2V16H192v-3.2h-3.2V9.6h-3.2v3.2h-3.2V9.6h-3.2v3.2H176V9.6h-3.2v3.2h-3.2V9.6h-3.2v3.2h-3.2V9.6H160v3.2h-3.2V9.6h-3.2v3.2h-3.2V9.6h-3.2v3.2H144V9.6h-3.2v3.2h-3.2V9.6h-3.2v3.2h-3.2V16h3.2v3.2h3.2v3.2h3.2v3.2h3.2v-3.2h3.2v3.2h3.2v-3.2h3.2v3.2h3.2v-3.2h3.2v3.2h3.2v3.2H160V32h3.2v3.2h3.2v3.2h3.2v-3.2h3.2v3.2h3.2v3.2h-3.2v3.2h-3.2v-3.2h-3.2v3.2h-3.2V48H160v3.2h3.2v3.2H160v3.2h3.2v3.2h3.2V64h3.2v3.2zm-3.2-6.4h-1.6v-3.2h-3.2v-3.2h3.2v-3.2h-3.2V48h3.2v-3.2h3.2V48h3.2v-3.2h3.2v-3.2h3.2v-3.2h3.2v3.2h3.2v3.2h3.2V48h3.2v-3.2h3.2V48h3.2v-3.2h3.2v-3.2h3.2v3.2h3.2V48h3.2v3.2h3.2v3.2h3.2v3.2h-3.2v-3.2h-3.2v-3.2H208v3.2h-3.2v3.2h-3.2v3.2h-3.2v-3.2h-3.2v3.2H192v-3.2h-3.2v-3.2h-3.2v-3.2h-3.2v3.2h-3.2v3.2H176v3.2h-3.2v-3.2h-3.2v3.2zm0-3.2h1.6v-3.2h3.2v3.2h3.2v-3.2h3.2v-3.2h3.2V48h3.2v3.2h3.2v3.2h3.2v3.2h3.2v-3.2h3.2v3.2h3.2v-3.2h3.2v-3.2h3.2V48h-3.2v3.2h-3.2V48h-3.2v3.2h-3.2V48H192v3.2h-3.2V48h-3.2v-3.2h-3.2v-3.2h-3.2v3.2H176V48h-3.2v3.2h-3.2V48h-3.2v3.2h3.2v3.2h-3.2v3.2zm6.4-3.2h-1.6v-3.2h3.2V48h3.2v-3.2h3.2V48h-3.2v3.2H176v3.2zm19.2 0H192v-3.2h3.2v3.2zm6.4 0h-1.6v-3.2h3.2v3.2zm-32-19.2h-1.6V32h-3.2v-3.2h3.2V32h3.2v3.2zm38.4-6.4h-1.6v-3.2h-3.2v-3.2h-3.2v-3.2h3.2V16h3.2v-3.2h3.2V16h3.2v-3.2h3.2V16h3.2v3.2h-3.2v3.2h-3.2v-3.2H208v3.2h-3.2v3.2h3.2v3.2zm-3.2-6.4h1.6v-3.2h3.2V16h-3.2v3.2h-3.2v3.2zm9.6-3.2h1.6V16h-3.2v3.2zm0 9.6h-1.6v-3.2h3.2v3.2zm-48-3.2h-1.6v-3.2H160v-3.2h-3.2v3.2h-3.2v-3.2h-3.2v3.2h-3.2v-3.2H144v3.2h-3.2v-3.2h-3.2V16h-3.2v-3.2h3.2V16h3.2v-3.2h3.2V16h3.2v-3.2h3.2V16h3.2v-3.2h3.2V16h3.2v-3.2h3.2V16h3.2v-3.2h3.2V16h3.2v-3.2h3.2V16h-3.2v3.2h-3.2v3.2h-3.2v3.2zm0-3.2h1.6v-3.2h3.2V16h-3.2v3.2h-3.2V16H160v3.2h3.2v3.2zm-22.4-3.2h1.6V16h-3.2v3.2zm6.4 0h1.6V16h-3.2v3.2zm6.4 0h1.6V16h-3.2v3.2zm32 3.2h-1.6v-3.2h-3.2V16h-3.2v-3.2h3.2V16h3.2v-3.2h3.2V16h-3.2v3.2h3.2v3.2zm6.4 0H192v-3.2h3.2v3.2zM232 64h1.6v-3.2h-3.2V64zm-92.8-3.2h1.6v-3.2h3.2v-3.2h-3.2v-3.2h3.2V48h-3.2v3.2h-3.2V48h-3.2v3.2h3.2v3.2h-3.2v3.2h3.2v3.2zm0-3.2h-1.6v-3.2h3.2v3.2zm12.8 3.2h1.6v-3.2h3.2v-3.2h-3.2v-3.2h3.2V48h-3.2v3.2h-3.2V48h-3.2v3.2h3.2v3.2h-3.2v3.2h3.2v3.2zm0-3.2h-1.6v-3.2h3.2v3.2zm-48 0h1.6v-3.2h-3.2v3.2zm121.6 0h1.6v-3.2H224v3.2zm6.4 0h1.6v-3.2h-3.2v3.2zm6.4 0h1.6v-3.2h-3.2v3.2zm6.4 0h1.6v-3.2h-3.2v3.2zm-134.4-6.4h1.6V48h-3.2v3.2zm6.4 0h1.6V48h-3.2v3.2zm108.8 0h1.6V48H224v3.2zm-32-12.8h1.6v-3.2H192v3.2zM180.8 32h1.6v-3.2h-3.2V32zm6.4 0h1.6v-3.2h-3.2V32zm6.4 0h1.6v-3.2H192V32zm32-12.8h1.6V16h3.2v-3.2h-3.2V16H224v3.2zm-128 137.6H96v-3.2h3.2v3.2zm32 0H128v-3.2h3.2v3.2zm6.4 0h-1.6v-3.2h3.2v3.2zm6.4 0h-1.6v-3.2h3.2v3.2zm6.4 0h-1.6v-3.2h3.2v3.2zm6.4 0h-1.6v-3.2h3.2v3.2zm6.4 0H160v-3.2h3.2v3.2zm6.4 0h-1.6v-3.2h3.2v3.2zm6.4 0h-1.6v-3.2h3.2v3.2zm6.4 0h-1.6v-3.2h3.2v3.2zm6.4 0h-1.6v-3.2h3.2v3.2zm6.4 0H192v-3.2h3.2v3.2zm6.4 0h-1.6v-3.2h3.2v3.2zm6.4 0h-1.6v-3.2h3.2v3.2zm6.4 0h-1.6v-3.2h3.2v3.2zm6.4 0h-1.6v-3.2h3.2v3.2zm12.8 0h-1.6v-3.2h3.2v3.2zm6.4 0h-1.6v-3.2h3.2v3.2zm6.4 0h-1.6v-3.2h3.2v3.2zm6.4 0h-1.6v-3.2h3.2v3.2zM104 150.4h-1.6v-3.2h3.2V144h-3.2v-3.2h3.2v3.2h3.2v-3.2h3.2v3.2h-3.2v3.2h3.2v3.2h-3.2v-3.2h-3.2v3.2zm12.8 0h-1.6v-3.2h3.2v3.2zm6.4 0h-1.6v-3.2h3.2v3.2zm12.8 0h-1.6v-3.2h3.2v3.2zm6.4 0h-1.6v-3.2h3.2V144h-3.2v-3.2h3.2v3.2h3.2v-3.2h3.2v3.2h-3.2v3.2h3.2v3.2h-3.2v-3.2H144v3.2zm19.2 0H160v-3.2h3.2v3.2zm6.4 0h-1.6v-3.2h3.2V144h-3.2v-3.2h-3.2v3.2H160v-3.2h3.2v-3.2H160v-3.2h-3.2v3.2h-3.2v-3.2h3.2v-3.2h-3.2V128h3.2v3.2h3.2V128h3.2v-3.2H160v-3.2h3.2v3.2h3.2v-3.2h3.2v-3.2h-3.2v-3.2h3.2v3.2h3.2v-3.2h3.2v3.2h3.2v-3.2h3.2v3.2h3.2v-3.2h3.2v3.2h-3.2v3.2h3.2v3.2h-3.2v-3.2h-3.2v3.2h-3.2v-3.2H176v3.2h-3.2v-3.2h-3.2v3.2h-3.2v3.2h3.2v3.2h3.2V128h3.2v3.2h-3.2v3.2h3.2v3.2h3.2v-3.2h3.2v-3.2h-3.2V128h3.2v3.2h3.2V128h3.2v3.2h-3.2v3.2h3.2v3.2h3.2v-3.2h3.2v-3.2H192V128h3.2v3.2h3.2V128h3.2v3.2h-3.2v3.2h3.2v3.2h3.2v-3.2h3.2v-3.2h-3.2V128h3.2v3.2h3.2V128h3.2v3.2h-3.2v3.2h3.2v3.2h3.2v-3.2h3.2v3.2h-3.2v3.2h3.2v3.2h-3.2v3.2h3.2v3.2h-3.2v-3.2h-3.2v3.2h-3.2v-3.2H208v3.2h-3.2v-3.2h-3.2v3.2h-3.2v-3.2h-3.2v3.2H192v-3.2h-3.2v3.2h-3.2v-3.2h-3.2v3.2h-3.2v-3.2h3.2V144h-3.2v-3.2H176v3.2h-3.2v3.2h3.2v3.2h-3.2v-3.2h-3.2v3.2zm19.2-3.2h1.6V144h-3.2v3.2zm6.4 0h1.6V144H192v3.2zm6.4 0h1.6V144h3.2v3.2h3.2V144h-3.2v-3.2h9.6v3.2h-3.2v3.2h3.2V144h3.2v-3.2h-3.2v-3.2h-3.2v-3.2H208v3.2h-3.2v3.2h-3.2v-3.2h-3.2v-3.2h-3.2v3.2H192v3.2h3.2v-3.2h3.2v3.2h3.2v3.2h-3.2v3.2zm-28.8-3.2h1.6v-3.2h3.2v-3.2h-3.2v-3.2h-3.2v-3.2h-3.2V128h-3.2v3.2H160v3.2h3.2v3.2h3.2v3.2h3.2v3.2zm-3.2-6.4h-1.6v-3.2h3.2v3.2zm12.8 3.2h1.6v-3.2h3.2v3.2h3.2v-3.2h-3.2v-3.2h-3.2v3.2h-3.2v3.2zm-6.4-19.2h1.6v-3.2h-3.2v3.2zm6.4 0h1.6v-3.2h-3.2v3.2zm44.8 28.8H224v-3.2h3.2v3.2zm12.8 0h-1.6v-3.2h3.2v3.2zm6.4 0h-1.6v-3.2h3.2v3.2zm6.4 0h-1.6v-3.2h3.2v3.2zM116.8 144h-1.6v-3.2h3.2v3.2zm6.4 0h-1.6v-3.2h3.2v3.2zm6.4 0H128v-3.2h3.2v3.2zm6.4 0h-1.6v-3.2h3.2v3.2zm19.2 0h-1.6v-3.2h3.2v3.2zm70.4 0H224v-3.2h3.2v3.2zm6.4 0h-1.6v-3.2h3.2v3.2zm6.4 0h-1.6v-3.2h3.2v3.2zm6.4 0h-1.6v-3.2h3.2v3.2zm-179.2-6.4H64v-3.2h3.2v3.2zm6.4 0h-1.6v-3.2h3.2v3.2zm6.4 0h-1.6v-3.2H80v-3.2h-3.2V128h-3.2v3.2h-3.2V128h3.2v-3.2h-3.2v-3.2h3.2v3.2h3.2v-3.2H80v3.2h-3.2v3.2H80v3.2h3.2V128h3.2v3.2h-3.2v3.2h3.2v3.2h-3.2v-3.2H80v3.2zm12.8 0h-1.6v-3.2h3.2v-3.2h-3.2V128h3.2v3.2H96V128h3.2v3.2H96v3.2h3.2v3.2H96v-3.2h-3.2v3.2zm12.8 0h-1.6v-3.2h3.2v-3.2h-3.2V128h3.2v3.2h3.2V128h3.2v3.2h-3.2v3.2h3.2v3.2h-3.2v-3.2h-3.2v3.2zm12.8 0h-1.6v-3.2h3.2v3.2zm6.4 0h-1.6v-3.2h3.2v3.2zm12.8 0h-1.6v-3.2h3.2v3.2zm6.4 0h-1.6v-3.2h3.2v3.2zm6.4 0h-1.6v-3.2h3.2v3.2zm76.8 0H224v-3.2h3.2v3.2zm6.4 0h-1.6v-3.2h3.2v3.2zm6.4 0h-1.6v-3.2h3.2v3.2zm-121.6-6.4h-1.6V128h3.2v3.2zm6.4 0h-1.6V128h3.2v3.2zm6.4 0H128V128h3.2v3.2zm6.4 0h-1.6V128h3.2v3.2zm6.4 0h-1.6V128h3.2v3.2zm6.4 0h-1.6V128h3.2v3.2zm70.4 0h-1.6V128h3.2v3.2zm6.4 0H224V128h3.2v3.2zm6.4 0h-1.6V128h3.2v3.2zm6.4 0h-1.6V128h3.2v3.2zm-153.6-6.4h-1.6v-3.2h3.2v3.2zm6.4 0h-1.6v-3.2h3.2v3.2zm6.4 0H96v-3.2h3.2v3.2zm12.8 0h-1.6v-3.2h3.2v3.2zm12.8 0h-1.6v-3.2h3.2v3.2zm12.8 0h-1.6v-3.2h3.2v3.2zm12.8 0h-1.6v-3.2h3.2v3.2zm6.4 0h-1.6v-3.2h3.2v3.2zm38.4 0H192v-3.2h3.2v-3.2H192v-3.2h3.2v3.2h3.2v-3.2h3.2v3.2h-3.2v3.2h3.2v3.2h-3.2v-3.2h-3.2v3.2zm12.8 0h-1.6v-3.2h3.2v3.2zm6.4 0h-1.6v-3.2h3.2v3.2zm6.4 0h-1.6v-3.2h3.2v3.2zm6.4 0H224v-3.2h3.2v3.2zm12.8 0h-1.6v-3.2h3.2v3.2zm-172.8-6.4H64v-3.2h3.2v3.2zm6.4 0h-1.6v-3.2h3.2v3.2zm6.4 0h-1.6v-3.2H80v3.2zm6.4 0h-1.6v-3.2h3.2v3.2zm6.4 0h-1.6v-3.2h3.2v3.2zm6.4 0H96v-3.2h3.2v3.2zm6.4 0h-1.6v-3.2h3.2v3.2zm6.4 0h-1.6v-3.2h3.2v3.2zm6.4 0h-1.6v-3.2h3.2v3.2zm6.4 0h-1.6v-3.2h3.2v3.2zm6.4 0H128v-3.2h3.2v3.2zm12.8 0h-1.6v-3.2h3.2v3.2zm6.4 0h-1.6v-3.2h3.2v3.2zm6.4 0h-1.6v-3.2h3.2v3.2zm6.4 0H160v-3.2h3.2v3.2zm44.8 0h-1.6v-3.2h3.2v3.2zm12.8 0h-1.6v-3.2h3.2v3.2zm6.4 0H224v-3.2h3.2v3.2zm6.4 0h-1.6v-3.2h3.2v3.2zM65.6 112H64v-3.2h3.2v3.2zm6.4 0h-1.6v-3.2h3.2v3.2zm6.4 0h-1.6v-3.2H80v3.2zm6.4 0h-1.6v-3.2h3.2v3.2zm12.8 0H96v-3.2h3.2v3.2zm12.8 0h-1.6v-3.2h3.2v3.2zm12.8 0h-1.6v-3.2h3.2v3.2zm12.8 0h-1.6v-3.2h3.2v3.2zm12.8 0h-1.6v-3.2h3.2v3.2zm12.8 0H160v-3.2h3.2v3.2zm12.8 0h-1.6v-3.2h3.2v3.2zm12.8 0h-1.6v-3.2h3.2v3.2zm12.8 0h-1.6v-3.2h3.2v3.2zm12.8 0h-1.6v-3.2h3.2v3.2zm12.8 0H224v-3.2h3.2v3.2zm-160-6.4H64v-3.2h3.2v3.2zm6.4 0h-1.6v-3.2h3.2v3.2zm6.4 0h-1.6v-3.2H80v3.2zm6.4 0h-1.6v-3.2h3.2v3.2zm6.4 0h-1.6v-3.2h3.2v3.2zm6.4 0H96v-3.2h3.2v3.2zm6.4 0h-1.6v-3.2h3.2v3.2zm6.4 0h-1.6v-3.2h3.2v3.2zm6.4 0h-1.6v-3.2h3.2v3.2zm6.4 0h-1.6v-3.2h3.2v3.2zm6.4 0H128v-3.2h3.2v3.2zm6.4 0h-1.6v-3.2h3.2v3.2zm6.4 0h-1.6v-3.2h3.2v3.2zm6.4 0h-1.6v-3.2h3.2v3.2zm6.4 0h-1.6v-3.2h3.2v3.2zm6.4 0H160v-3.2h3.2v3.2zm6.4 0h-1.6v-3.2h3.2v3.2zm6.4 0h-1.6v-3.2h3.2v3.2zm6.4 0h-1.6v-3.2h3.2v3.2zm6.4 0h-1.6v-3.2h3.2v3.2zm6.4 0H192v-3.2h3.2v3.2zm12.8 0h-1.6v-3.2h3.2v3.2zm6.4 0h-1.6v-3.2h3.2v3.2zm6.4 0h-1.6v-3.2h3.2v3.2zm6.4 0H224v-3.2h3.2v3.2zm-160-6.4H64V96h3.2v-3.2H64v-3.2h3.2v3.2h3.2v-3.2h3.2v3.2h-3.2V96h3.2v3.2h-3.2V96h-3.2v3.2zm12.8 0h-1.6V96H80v3.2zm6.4 0h-1.6V96h3.2v3.2zm6.4 0h-1.6V96h3.2v3.2zm6.4 0H96V96h3.2v3.2zm12.8 0h-1.6V96h3.2v3.2zm12.8 0h-1.6V96h3.2v3.2zm12.8 0h-1.6V96h3.2v3.2zm12.8 0h-1.6V96h3.2v3.2zm12.8 0H160V96h3.2v3.2zm12.8 0h-1.6V96h3.2v3.2zm12.8 0h-1.6V96h3.2v3.2zm12.8 0h-1.6V96h3.2v3.2zm12.8 0h-1.6V96h3.2v3.2zm12.8 0H224V96h3.2v3.2zm6.4 0h-1.6V96h3.2v3.2zm6.4 0h-1.6V96h3.2v3.2zm-160-6.4h-1.6v-3.2H80v3.2zm6.4 0h-1.6v-3.2h3.2v3.2zm6.4 0h-1.6v-3.2h3.2v3.2zm6.4 0H96v-3.2h3.2v3.2zm6.4 0h-1.6v-3.2h3.2v3.2zm6.4 0h-1.6v-3.2h3.2v3.2zm6.4 0h-1.6v-3.2h3.2v3.2zm6.4 0h-1.6v-3.2h3.2v3.2zm6.4 0H128v-3.2h3.2v3.2zm12.8 0h-1.6v-3.2h3.2v3.2zm6.4 0h-1.6v-3.2h3.2v3.2zm6.4 0h-1.6v-3.2h3.2v3.2zm6.4 0H160v-3.2h3.2v3.2zm6.4 0h-1.6v-3.2h3.2v3.2zm6.4 0h-1.6v-3.2h3.2v3.2zm6.4 0h-1.6v-3.2h3.2v3.2zm6.4 0h-1.6v-3.2h3.2v3.2zm6.4 0H192v-3.2h3.2v3.2zm6.4 0h-1.6v-3.2h3.2v3.2zm6.4 0h-1.6v-3.2h3.2v3.2zm12.8 0h-1.6v-3.2h3.2v3.2zm6.4 0H224v-3.2h3.2v3.2zm6.4 0h-1.6v-3.2h3.2v3.2zm6.4 0h-1.6v-3.2h3.2v3.2zM65.6 86.4H64v-3.2h3.2V80H64v-3.2h3.2V80h3.2v-3.2h3.2V80h-3.2v3.2h3.2v3.2h-3.2v-3.2h-3.2v3.2zm12.8 0h-1.6v-3.2H80V80h-3.2v-3.2H80V80h3.2v-3.2h3.2V80h-3.2v3.2h3.2v3.2h-3.2v-3.2H80v3.2zm12.8 0h-1.6v-3.2h3.2v3.2zm6.4 0H96v-3.2h3.2v3.2zm6.4 0h-1.6v-3.2h3.2v3.2zm6.4 0h-1.6v-3.2h3.2v3.2zm12.8 0h-1.6v-3.2h3.2v3.2zm12.8 0h-1.6v-3.2h3.2v3.2zm12.8 0h-1.6v-3.2h3.2v3.2zm12.8 0H160v-3.2h3.2v3.2zm12.8 0h-1.6v-3.2h3.2v3.2zm12.8 0h-1.6v-3.2h3.2v3.2zm12.8 0h-1.6v-3.2h3.2v3.2zm12.8 0h-1.6v-3.2h3.2v3.2zm12.8 0H224v-3.2h3.2v3.2zm12.8 0h-1.6v-3.2h3.2v3.2zM91.2 80h-1.6v-3.2h3.2V80zm6.4 0H96v-3.2h3.2V80zm6.4 0h-1.6v-3.2h3.2V80zm6.4 0h-1.6v-3.2h3.2V80zm6.4 0h-1.6v-3.2h3.2V80zm6.4 0h-1.6v-3.2h3.2V80zm6.4 0H128v-3.2h3.2V80zm6.4 0h-1.6v-3.2h3.2V80zm6.4 0h-1.6v-3.2h3.2V80zm6.4 0h-1.6v-3.2h3.2V80zm6.4 0h-1.6v-3.2h3.2V80zm6.4 0H160v-3.2h3.2V80zm6.4 0h-1.6v-3.2h3.2V80zm6.4 0h-1.6v-3.2h3.2V80zm6.4 0h-1.6v-3.2h3.2V80zm6.4 0h-1.6v-3.2h3.2V80zm6.4 0H192v-3.2h3.2V80zm12.8 0h-1.6v-3.2h3.2V80zm12.8 0h-1.6v-3.2h3.2V80zm6.4 0H224v-3.2h3.2V80zm6.4 0h-1.6v-3.2h3.2V80zm6.4 0h-1.6v-3.2h3.2V80zm-160-6.4h-1.6v-3.2H80v3.2zm6.4 0h-1.6v-3.2h3.2v3.2zm6.4 0h-1.6v-3.2h3.2v3.2zm6.4 0H96v-3.2h3.2v3.2zm6.4 0h-1.6v-3.2h3.2v3.2zm6.4 0h-1.6v-3.2h3.2v3.2zm25.6 0h-1.6v-3.2h3.2v3.2zm12.8 0h-1.6v-3.2h3.2v3.2zm12.8 0H160v-3.2h3.2v3.2zm19.2 0h-1.6v-3.2h3.2v3.2zm6.4 0h-1.6v-3.2h3.2v3.2zm25.6 0h-1.6v-3.2h3.2v3.2zm12.8 0H224v-3.2h3.2v3.2zM84.8 67.2h-1.6V64h3.2v-3.2h-3.2v-3.2h3.2v3.2h3.2v-3.2h3.2v3.2h-3.2V64h3.2v3.2h-3.2V64h-3.2v3.2zm12.8 0H96V64h3.2v3.2zm6.4 0h-1.6V64h3.2v3.2zM264 48h-1.6v-3.2h3.2V48zm6.4 0h-1.6v-3.2h3.2V48zM104 9.6h-1.6V6.4h3.2v3.2zm35.2 281.6h1.6V288h3.2v-3.2h-3.2v3.2h-3.2v-3.2h-3.2v3.2h3.2v3.2zm12.8 0h1.6V288h3.2v-3.2h-3.2v3.2h-3.2v-3.2h-3.2v3.2h3.2v3.2zm12.8 0h1.6V288h3.2v-3.2h-3.2v3.2h-3.2v-3.2H160v3.2h3.2v3.2zM232 288h1.6v-3.2h-3.2v3.2zm6.4 0h1.6v-3.2h-3.2v3.2zm12.8 0h1.6v-3.2h-3.2v3.2zm12.8 0h1.6v-3.2h-3.2v3.2zm-25.6-6.4h1.6v-3.2h-3.2v3.2zm6.4 0h1.6v-3.2h-3.2v3.2zm6.4 0h1.6v-3.2h-3.2v3.2zm6.4 0h1.6v-3.2H256v3.2zm6.4 0h1.6v-3.2h-3.2v3.2zm-76.8-6.4h1.6V272h-3.2v3.2zm6.4 0h1.6V272H192v3.2zm6.4 0h1.6V272h-3.2v3.2zm51.2 0h1.6V272h-3.2v3.2zm0-6.4h1.6v-3.2h-3.2v3.2zM14.4 115.2H16V112h-3.2v3.2zm6.4 0h1.6V112h-3.2v3.2zm-6.4-12.8H16v-3.2h-3.2v3.2zm0-12.8H16v-3.2h-3.2v3.2zm6.4-6.4h1.6V80h-3.2v3.2zm32-32h1.6V48h-3.2v3.2zm6.4 0h1.6V48h-3.2v3.2zm6.4 0h1.6V48H64v3.2zm-6.4-6.4h1.6v-3.2h-3.2v3.2zm12.8 0h1.6v-3.2h-3.2v3.2zm19.2-6.4h1.6v-3.2H96v3.2h3.2v-3.2H96V32h3.2v-3.2H96V32h-3.2v3.2h-3.2v3.2zm12.8 0h1.6v-3.2h3.2v3.2h3.2v-3.2h-3.2V32h3.2v-3.2h-3.2V32h-3.2v-3.2h-3.2V32h3.2v3.2h-3.2v3.2zm12.8 0h1.6v-3.2h3.2v3.2h3.2v-3.2h-3.2V32h3.2v-3.2h-3.2V32h-3.2v-3.2h-3.2V32h3.2v3.2h-3.2v3.2zm12.8 0h1.6v-3.2H128v3.2zM84.8 25.6h1.6v-3.2h-3.2v3.2zm19.2 0h1.6v-3.2h-3.2v3.2zm6.4 0h1.6v-3.2h-3.2v3.2zm-6.4-6.4h1.6V16h-3.2v3.2zm6.4 0h1.6V16h-3.2v3.2zm6.4-6.4h1.6V9.6h-3.2v3.2zm0-6.4h1.6V3.2h-3.2v3.2zm6.4 0h1.6V3.2h-3.2v3.2zM84.8 291.2h-1.6V288h3.2v3.2zm0-6.4h-1.6v-3.2h3.2v3.2zm115.2 0h-1.6v-3.2h3.2v3.2zm6.4 0h-1.6v-3.2h3.2v3.2zm32-32h-1.6v-3.2h3.2v3.2zm19.2-230.4H256v-3.2h3.2V16H256v-3.2h3.2V16h3.2v-3.2h3.2V16h-3.2v3.2h3.2v3.2h-3.2v-3.2h-3.2v3.2zm12.8 0h-1.6v-3.2h3.2V16h-3.2v-3.2h3.2V16h3.2v-3.2h3.2V16h-3.2v3.2h3.2v3.2h-3.2v-3.2H272v3.2zm12.8 0h-1.6v-3.2h3.2v3.2zm6.4 0H288v-3.2h3.2v3.2zm-6.4-6.4h-1.6v-3.2h3.2V16zm6.4 0H288v-3.2h3.2V16zm-32-6.4H256V6.4h3.2V3.2H256V0h3.2v3.2h3.2V0h3.2v3.2h-3.2v3.2h3.2v3.2h-3.2V6.4h-3.2v3.2zm12.8 0h-1.6V6.4h3.2V3.2h-3.2V0h3.2v3.2h3.2V0h3.2v3.2h-3.2v3.2h3.2v3.2h-3.2V6.4H272v3.2zm12.8 0h-1.6V6.4h3.2V3.2h-3.2V0h3.2v3.2h3.2V0h3.2v3.2H288v3.2h3.2v3.2H288V6.4h-3.2v3.2z"/></svg>