<svg xmlns="http://www.w3.org/2000/svg" width="566.29" height="185.748" version="1.0"><path fill="none" stroke="#663266" stroke-width="5.692" d="M350.695 162.139c.463 1.188.925 2.374 1.406 3.534.741 1.576 1.598 3.084 2.628 4.493 5.565 7.564 14.884 11.705 26.715 12.736h12.727c4.024-.314 8.24-.899 12.611-1.754 7.538-1.474 15.529-3.738 23.827-6.764a213.032 213.032 0 0019.302-8.156c14.277-6.844 29.026-15.67 43.495-26.323a288.854 288.854 0 0013.728-10.759 273.434 273.434 0 0011.572-10.186c10.29-9.918 18.06-19.99 22.46-28.835 4.582-9.21 5.496-17.085 1.742-22.046-2.3-3.045-6.152-4.677-11.11-5.06 22.335-16.76 35.35-37.089 30.682-49.906-1.483-4.09-4.747-7.142-9.425-8.83-2.08-.748-4.419-1.222-6.97-1.437h-6.874c-9.598.692-23.555 4.129-35.397 9.932"/><path fill="#636" fill-rule="evenodd" d="M39.592 7.299L0 180.039h382.599c-11.349-.99-20.309-4.975-25.648-12.237-.99-1.344-1.808-2.79-2.525-4.305a148.904 148.904 0 01-1.316-3.379c-1.139-3.62-1.593-7.636-1.388-11.917.57-11.93 6.167-26.12 15.866-40.98 10.301-15.791 25.232-32.343 43.718-47.702 4.144-3.44 8.428-6.837 12.913-10.138 5.544-4.079 11.13-7.835 16.719-11.348 20.592-12.964 41.133-22.036 59.335-26.644-17.393 5.675-36.934 15.308-56.24 28.423-.694.469-1.38.95-2.063 1.423-10.712 7.422-20.416 15.304-28.885 23.264-27.252 25.624-41.656 52.175-35.11 67.73a19.444 19.444 0 001.672 3.06c7.034 10.347 24.47 12.135 46.564 6.58 1.503-.375 3.005-.8 4.553-1.245 7.058-2.037 14.551-4.79 22.269-8.181 1.855-.82 3.73-1.662 5.62-2.562.194-.09.376-.182.57-.284 24.36-12.104 43.08-26.03 47.133-34.399.888-1.82 1.101-3.372.498-4.589-2.891-5.862-23.124-1.901-47.632 8.716a254.374 254.374 0 00-5.976 2.668 189.97 189.97 0 015.087-4.554 172.6 172.6 0 018.715-7.043 173.918 173.918 0 0114.407-9.818c22.334-16.85 33.625-32.788 31.268-38.703-.444-1.114-1.388-1.88-2.845-2.348-4.656-1.48-13.154.287-23.478 4.518-8.515 3.492-18.295 8.672-28.21 15.118l-1.351.89-.25.142-4.766 3.166 2.74-5.016c4.063-7.439 10.683-15.2 18.924-22.41 6.044-5.272 12.95-10.24 20.383-14.585a129.963 129.963 0 018.43-4.554 121.152 121.152 0 018.574-3.77c8.168-3.23 17.142-7.31 23.942-7.844-.62 0-20.278 2.117-20.278 2.117zm308.395.249c-1.115 17.025 2.186 41.963 9.676 69.65a386.539 386.539 0 004.375 15.012c.99 3.132 2.012 6.214 3.06 9.249-.615.904-1.234 1.802-1.815 2.704-9.345 14.322-14.808 27.857-16.185 39.627-3.95-13.227-6.924-27.715-8.609-43.078a262.226 262.226 0 01-1.102-13.055c-1.845-31.239 2.233-59.557 10.6-80.11zM161.48 29.709c.214-.005.424 0 .64 0h42.083c3.597 0 6.379.674 8.36 2.028 1.969 1.361 2.707 3.122 2.24 5.265l-5.015 22.66h-14.834l4.873-22.056H162.69l-13.411 60.616-4.838 21.948h37.102l.036-.142 7.435-33.58h-17.431l1.672-7.578h32.264l-9.249 41.905a5.928 5.928 0 01-.64 1.672c-.763 1.388-2.093 2.578-3.948 3.557-2.573 1.355-5.652 2.028-9.25 2.028h-42.046c-3.597 0-6.379-.673-8.36-2.028-1.969-1.355-2.719-3.085-2.24-5.23l18.533-83.772c.478-2.143 1.969-3.904 4.553-5.265.09-.05.193-.06.284-.107 2.359-1.181 5.127-1.845 8.325-1.92zm65.952 0h52.967c3.552 0 6.344.674 8.324 2.028 1.992 1.361 2.755 3.122 2.277 5.265l-9.89 44.679c-.466 2.128-1.993 3.865-4.588 5.229-2.595 1.368-5.65 2.063-9.213 2.063h-38.49l-7.434 33.545-1.21 5.514h-14.514l1.103-4.98zm73.173 0h14.513l-16.434 74.24-3.593 16.221h34.719c.364 2.663.79 5.278 1.245 7.862h-52.22l4.125-18.64zm-60.403 7.897l-9.64 43.47h36.178l9.604-43.47zm-77.143 102.596c.142-.005.284 0 .427 0 1.685 0 3.156.296 4.34.854 1.264.592 2.167 1.471 2.668 2.632.49 1.127.617 2.406.356 3.806l-.107.534h-4.162l.036-.498c.107-.978-.014-1.748-.392-2.277a2.441 2.441 0 00-.178-.213 2.309 2.309 0 00-.355-.285c-.583-.367-1.494-.569-2.668-.569-1.56 0-2.725.272-3.522.818-.774.535-1.263 1.133-1.423 1.85-.16.729.102 1.111.285 1.316l.035.036c.231.196 1.032.657 3.522 1.245 2.254.546 3.746 1.037 4.589 1.458 1.275.65 2.165 1.49 2.632 2.526.467 1.025.57 2.224.285 3.522-.285 1.263-.93 2.429-1.886 3.521-.944 1.093-2.147 1.958-3.592 2.562a12.145 12.145 0 01-4.625.924c-2.049 0-3.694-.31-4.98-.924-1.343-.638-2.312-1.644-2.881-2.953-.547-1.275-.663-2.722-.356-4.304l.107-.498h4.09l-.035.498c-.102.944-.001 1.707.249 2.276.239.547.694 1 1.423 1.352.774.376 1.741.57 2.846.57.99 0 1.895-.167 2.703-.463.797-.285 1.43-.66 1.885-1.139.444-.478.705-.983.819-1.53.113-.489.086-.903-.107-1.244-.216-.364-.645-.687-1.316-.96l-3.486-1.032c-1.947-.49-3.257-.956-4.02-1.423-1.036-.615-1.783-1.403-2.17-2.348-.387-.933-.428-1.968-.178-3.095.262-1.206.844-2.355 1.743-3.379.911-1.036 2.086-1.849 3.486-2.383a12.246 12.246 0 013.913-.783zm37.352.071c.225-.017.436 0 .675 0l2.562.285.853.07-1.245 3.167-.249.498-1.956-.178c-.578 0-1.002.09-1.28.285-.02.014-.055.056-.072.07-.037.034-.1.09-.142.143-.172.225-.38.626-.534 1.352 0 0-.074.307-.142.57h3.059l-.783 3.52h-2.988c-.227 1.025-3.023 13.554-3.023 13.554h-4.127s2.682-12.04 3.024-13.553h-2.383l.782-3.522h2.348c.114-.49.284-1.103.284-1.103.25-1.138.513-1.956.854-2.525a5.372 5.372 0 011.957-1.921c.684-.398 1.55-.636 2.525-.712zm9.853.178l-1.352 6.083h2.668l-.782 3.522h-2.668c-.216.978-1.921 8.573-1.921 8.573s-.142.912-.142 1.174v.071c0 .001.034-.002.035 0l.427.035 1.956-.142-.213 3.166.035.569-2.81.32c-1.115 0-1.934-.182-2.526-.57-.626-.409-.99-.953-1.138-1.636-.022-.125-.071-.307-.071-.569 0-.512.097-1.379.427-2.881 0 0 1.495-6.7 1.814-8.11h-1.956l.782-3.522h1.957c.182-.82.818-3.629.818-3.629l3.308-1.743zm-131.085.142h16.008l-.89 3.985H82.595c-.182.808-.912 4.08-1.174 5.264H91.56l-.89 3.984H80.531c-.216.99-2.17 9.783-2.17 9.783h-4.304zm21.45 5.621c.161-.02.337 0 .499 0 1.024 0 1.97.312 2.881.96l.57.392-2.206 3.628-.605-.427a2.6 2.6 0 00-1.423-.427c-.433 0-.835.154-1.245.427a3.144 3.144 0 00-1.067 1.174c-.478.877-.828 1.858-1.067 2.917l-1.921 8.75h-4.127l3.807-17.074h3.841s-.132.518-.177.711c.182-.136.374-.324.533-.426a4.394 4.394 0 011.708-.605zm12.238 0c.248-.019.493 0 .747 0 2.322 0 4.079.814 5.229 2.419.717 1.036 1.103 2.316 1.103 3.842 0 .842-.104 1.748-.32 2.739l-.32 1.245h-11.597a7.851 7.851 0 00-.036.711c0 .888.182 1.587.57 2.099.183.25.396.476.64.64.458.3 1.05.463 1.743.463.842 0 1.582-.232 2.276-.676.66-.421 1.292-1.094 1.85-2.028h4.41l-.39.854c-.843 1.708-2.018 3.04-3.486 3.984-1.469.945-3.223 1.458-5.158 1.458-2.516 0-4.389-.813-5.55-2.418-1.15-1.571-1.397-3.743-.782-6.475.614-2.777 1.84-4.997 3.628-6.545 1.602-1.389 3.42-2.16 5.443-2.312zm18.533 0c.248-.019.493 0 .747 0 2.322 0 4.08.814 5.23 2.419.716 1.036 1.102 2.316 1.102 3.842 0 .83-.104 1.724-.32 2.703l-.32 1.28h-11.597l-.036.463c-.008.06.004.15 0 .214v.035c0 .17.024.339.036.498.057.649.226 1.191.533 1.6.059.08.114.179.178.25.522.558 1.26.854 2.206.854.842 0 1.593-.232 2.276-.676.66-.421 1.292-1.094 1.85-2.028h4.447l-.427.854c-.843 1.707-2.018 3.04-3.486 3.984-1.469.945-3.223 1.458-5.158 1.458-2.516 0-4.389-.813-5.55-2.418-.75-1.025-1.102-2.33-1.102-3.878 0-.239.012-.497.035-.747.046-.592.137-1.19.285-1.85.614-2.766 1.805-4.997 3.593-6.545 1.601-1.389 3.455-2.16 5.478-2.312zm50.477 0c.254-.02.488 0 .747 0 2.368 0 4.188.8 5.372 2.383 1.172 1.582 1.457 3.717.853 6.403-.466 2.095-1.14 3.787-2.063 5.016a9.717 9.717 0 01-3.486 2.917 9.654 9.654 0 01-4.304 1.031c-2.413 0-4.21-.825-5.372-2.418-.75-1.014-1.138-2.318-1.138-3.878 0-.842.092-1.737.32-2.739.683-3.05 2.078-5.374 4.127-6.865 1.504-1.086 3.165-1.713 4.944-1.85zm62.501 0c.3-.019.578 0 .89 0 1.434 0 2.56.145 3.414.498.911.364 1.557.88 1.921 1.494.353.58.534 1.293.534 2.17l-.427 2.597-.783 3.521c-.671 3.005-.82 4.132-.853 4.554a4.572 4.572 0 00.178 1.636l.284.925h-4.197l-.178-.534c-.069-.25-.049-.569-.071-.854-.797.49-1.595.924-2.313 1.174-1.058.365-2.157.57-3.272.57-1.935 0-3.368-.504-4.234-1.494-.66-.729-.96-1.62-.96-2.633 0-.387.051-.788.142-1.21a5.928 5.928 0 011.103-2.383 6.661 6.661 0 011.921-1.707c.706-.421 1.493-.72 2.312-.925l2.526-.427c1.946-.228 3.4-.51 4.446-.818a2.1 2.1 0 01.072-.25c.165-.731.144-1.282-.036-1.564-.014-.018-.056-.056-.071-.071-.038-.041-.097-.106-.142-.143-.428-.338-1.159-.498-2.135-.498-1.104 0-1.92.18-2.49.534-.558.353-1.074.999-1.53 1.92h-4.304l.392-.853c.512-1.184 1.122-2.166 1.885-2.917.763-.751 1.793-1.333 2.988-1.743a11.846 11.846 0 012.988-.57zm18.035 0c.161-.02.337 0 .498 0 1.036 0 2.007.312 2.917.96l.534.392-2.206 3.628-.604-.427c-.444-.284-.898-.427-1.387-.427-.433 0-.86.154-1.281.427-.433.285-.747.662-1.032 1.174a11.677 11.677 0 00-1.067 2.917l-1.956 8.75h-4.127l3.806-17.074h3.842s-.096.518-.142.711c.182-.136.363-.324.534-.426a4.173 4.173 0 011.671-.605zm12.202 0c.248-.019.493 0 .747 0 2.322 0 4.09.814 5.229 2.419.729 1.036 1.103 2.316 1.103 3.842 0 .842-.14 1.748-.356 2.739l-.285 1.245h-11.596c-.023.239-.071.495-.071.711 0 .888.193 1.587.569 2.099.058.08.149.178.213.25.038.039.103.104.143.141.508.463 1.201.712 2.063.712.842 0 1.582-.232 2.276-.676.66-.421 1.281-1.094 1.85-2.028h4.447l-.427.854c-.843 1.708-2.03 3.04-3.486 3.984-1.48.945-3.212 1.459-5.158 1.459-2.516 0-4.353-.814-5.514-2.42-1.15-1.57-1.421-3.742-.818-6.474.614-2.777 1.806-4.997 3.593-6.545 1.612-1.389 3.457-2.16 5.478-2.312zm-62.288.32h4.233s.523 10.132.534 10.28c.17-.362.303-.668.32-.711l4.66-9.569h3.878s.355 10.01.355 10.067c.114-.205 5.3-10.067 5.3-10.067h4.198l-9.249 17.075h-3.806s-.369-9.259-.391-9.783l-4.767 9.783h-3.913zm-99.39 3.237c-.98.042-1.87.395-2.703 1.067-.66.524-1.105 1.243-1.458 2.028h7.007c.013-.125.036-.278.036-.391 0-.65-.115-1.153-.32-1.494-.501-.82-1.244-1.21-2.348-1.21-.066 0-.148-.003-.213 0zm18.534 0c-.98.042-1.871.395-2.704 1.067-.66.524-1.094 1.243-1.458 2.028h7.008c.012-.125.035-.278.035-.391 0-.65-.103-1.153-.32-1.494a2.876 2.876 0 00-.355-.463c-.476-.49-1.13-.747-1.993-.747-.066 0-.148-.003-.213 0zm143.357 0c-1.008.031-1.95.373-2.81 1.067-.649.524-1.094 1.243-1.458 2.028h6.972c.012-.125.035-.278.035-.391 0-.65-.103-1.153-.32-1.494-.49-.809-1.243-1.198-2.348-1.21h-.07zm-93.2.071c-.94.112-1.816.541-2.632 1.28-.98.889-1.69 2.283-2.099 4.127-.17.774-.249 1.436-.249 2.028 0 .808.155 1.443.463 1.92.081.124.19.253.284.356.506.538 1.213.819 2.099.819 1.15 0 2.163-.429 3.13-1.317.98-.899 1.678-2.307 2.099-4.197.387-1.73.333-3.022-.213-3.842-.524-.797-1.29-1.174-2.348-1.174-.18 0-.36-.02-.534 0zm64.28 6.225c-.968.262-2.052.483-3.486.676-1.07.16-1.833.328-2.277.498-.387.16-.699.38-.96.676a2.11 2.11 0 00-.498.925 2.5 2.5 0 00-.036.391v.036c.001.027-.003.08 0 .107.007.051.021.13.036.177.005.016.03.056.035.072.012.03.02.077.036.106.015.03.052.08.07.107.03.04.071.104.108.142.284.319.852.463 1.671.463.9 0 1.765-.171 2.562-.57a4.982 4.982 0 001.885-1.636c.341-.478.615-1.214.854-2.17zM28.625 127.546l95.47-98.571h15.59l-23.051 98.57h-12.823l6.545-28.374H70.334l-27.199 28.375h-14.51m51.433-38.528h32.734l6.039-24.743c2.437-9.817 4.784-17.998 7.039-24.542-4.507 5.648-10.469 12.35-17.887 20.104L80.059 89.018"/></svg>