<svg xmlns="http://www.w3.org/2000/svg" height="84.695" width="427.474"><path d="M0 0h124.69v84.695H0z" fill="#fff"/><path d="M2.397 2.321h119.894v79.93H2.397z" fill="#254aa5"/><path d="M59.789 19.737l2.53-1.847 2.53 1.847-.963-2.986 2.57-1.846h-3.167l-.97-3.022-.969 3.026-3.165-.004 2.568 1.846zm-13.092 3.518l2.53-1.847 2.528 1.847-.962-2.985 2.568-1.847h-3.166l-.97-3.027-.969 3.03-3.165-.003 2.568 1.847zm-7.05 1.743l-.97 3.028-3.165-.004 2.568 1.847-.963 2.987 2.53-1.847 2.53 1.847-.962-2.987 2.568-1.847h-3.166zm-3.513 19.088l2.526 1.845-.96-2.987 2.568-1.845h-3.166l-.968-3.025-.97 3.033-3.168-.008 2.57 1.845-.963 2.987zm4.483 10.129l-.97-3.026-.969 3.028-3.165-.002 2.568 1.846-.964 2.986 2.53-1.851 2.53 1.85-.963-2.985 2.568-1.846zm9.597 9.597l-.968-3.023-.969 3.026-3.167-.003 2.568 1.847-.96 2.985 2.528-1.847 2.528 1.847-.96-2.985 2.567-1.847zM63.29 67.29l-.97-3.024-.967 3.028-3.167-.004 2.568 1.847-.961 2.985 2.529-1.847 2.528 1.847-.963-2.985 2.571-1.847zm13.075-3.478l-.968-3.023-.97 3.026-3.164-.003 2.566 1.847-.96 2.985 2.528-1.847 2.531 1.847-.965-2.985 2.57-1.847zm9.602-9.597l-.972-3.026-.97 3.028-3.165-.002 2.571 1.846-.965 2.986 2.53-1.851 2.53 1.85-.966-2.985 2.571-1.846zm6.642-13.153H89.44l-.97-3.024-.969 3.028-3.166-.004 2.569 1.847-.961 2.985 2.526-1.85 2.53 1.85-.962-2.985zm-10.143-8.246l2.53-1.847 2.53 1.847-.966-2.985 2.571-1.844h-3.164l-.972-3.026-.97 3.03-3.165-.004 2.571 1.844zM75.435 15.4l-.968 3.029-3.168-.006 2.566 1.848-.96 2.987 2.532-1.85 2.527 1.85-.96-2.987 2.57-1.848h-3.171z" fill="#fff200"/><g font-family="Arial" fill="#231f20"><text transform="translate(136.73 32.637) scale(1.33333)" font-weight="700" font-size="24"><tspan y="0" x="0 15.768 33.096001 50.256001 68.928001 85.008003 101.016 118.344 135.672 142.34399 159.672 177 183.672 202.34399">EUROPEAN UNION</tspan></text><text transform="translate(136.73 59.988) scale(1.33333)" font-weight="400" font-size="15"><tspan x="0" y="0">Public Licence v1.2</tspan></text></g></svg>
