<svg xmlns="http://www.w3.org/2000/svg" height="84.695" width="427.474"><path d="M0 0h124.69v84.695H0z" fill="#fff"/><path d="M2.397 2.321h119.894v79.93H2.397z" fill="#254aa5"/><path d="M59.789 19.737l2.53-1.847 2.53 1.847-.963-2.986 2.57-1.846h-3.167l-.97-3.022-.969 3.026-3.165-.004 2.568 1.846zm-13.092 3.518l2.53-1.847 2.528 1.847-.962-2.985 2.568-1.847h-3.166l-.97-3.027-.969 3.03-3.165-.003 2.568 1.847zm-7.05 1.743l-.97 3.028-3.165-.004 2.568 1.847-.963 2.987 2.53-1.847 2.53 1.847-.962-2.987 2.568-1.847h-3.166zm-3.513 19.088l2.526 1.845-.96-2.987 2.568-1.845h-3.166l-.968-3.025-.97 3.033-3.168-.008 2.57 1.845-.963 2.987zm4.483 10.129l-.97-3.026-.969 3.028-3.165-.002 2.568 1.846-.964 2.986 2.53-1.851 2.53 1.85-.963-2.985 2.568-1.846zm9.597 9.597l-.968-3.023-.969 3.026-3.167-.003 2.568 1.847-.96 2.985 2.528-1.847 2.528 1.847-.96-2.985 2.567-1.847zM63.29 67.29l-.97-3.024-.967 3.028-3.167-.004 2.568 1.847-.961 2.985 2.529-1.847 2.528 1.847-.963-2.985 2.571-1.847zm13.075-3.478l-.968-3.023-.97 3.026-3.164-.003 2.566 1.847-.96 2.985 2.528-1.847 2.531 1.847-.965-2.985 2.57-1.847zm9.602-9.597l-.972-3.026-.97 3.028-3.165-.002 2.571 1.846-.965 2.986 2.53-1.851 2.53 1.85-.966-2.985 2.571-1.846zm6.642-13.153H89.44l-.97-3.024-.969 3.028-3.166-.004 2.569 1.847-.961 2.985 2.526-1.85 2.53 1.85-.962-2.985zm-10.143-8.246l2.53-1.847 2.53 1.847-.966-2.985 2.571-1.844h-3.164l-.972-3.026-.97 3.03-3.165-.004 2.571 1.844zM75.435 15.4l-.968 3.029-3.168-.006 2.566 1.848-.96 2.987 2.532-1.85 2.527 1.85-.96-2.987 2.57-1.848h-3.171z" fill="#fff200"/><g font-family="Arial" fill="#231f20"><path d="M139.058 32.637V9.731h16.984v3.875h-12.359v5.078h11.5v3.86h-11.5v6.234h12.797v3.859zM160.05 9.73h4.626v12.407q0 2.953.172 3.828.297 1.406 1.406 2.266 1.125.844 3.062.844 1.97 0 2.97-.797 1-.813 1.202-1.985.203-1.172.203-3.89V9.73h4.625v12.031q0 4.125-.375 5.828-.375 1.703-1.39 2.875-1 1.172-2.688 1.875-1.687.688-4.406.688-3.281 0-4.984-.75-1.688-.766-2.672-1.97-.985-1.218-1.297-2.546-.453-1.969-.453-5.812zm23.152 22.907V9.731h9.734q3.672 0 5.328.625 1.672.61 2.672 2.187 1 1.578 1 3.61 0 2.578-1.516 4.265-1.515 1.672-4.53 2.11 1.5.875 2.468 1.922.984 1.046 2.64 3.718l2.797 4.469h-5.53l-3.345-4.984q-1.78-2.672-2.437-3.36-.656-.703-1.39-.953-.735-.265-2.329-.265h-.937v9.562zm4.625-13.219h3.421q3.329 0 4.157-.281.828-.281 1.297-.969.468-.687.468-1.718 0-1.157-.625-1.86-.609-.719-1.734-.906-.563-.078-3.375-.078h-3.61zm17.301 1.907q0-3.5 1.047-5.875.782-1.75 2.125-3.141 1.36-1.39 2.97-2.063 2.14-.906 4.937-.906 5.062 0 8.093 3.14 3.047 3.141 3.047 8.735 0 5.547-3.015 8.688-3.016 3.125-8.063 3.125-5.11 0-8.125-3.11-3.016-3.125-3.016-8.593zm4.766-.157q0 3.89 1.797 5.907 1.797 2 4.562 2 2.766 0 4.532-1.985 1.78-2 1.78-5.984 0-3.938-1.733-5.875-1.72-1.938-4.579-1.938t-4.609 1.969q-1.75 1.953-1.75 5.906zm21.068 11.469V9.731h7.422q4.218 0 5.5.344 1.968.515 3.297 2.25 1.328 1.718 1.328 4.453 0 2.109-.766 3.547-.766 1.437-1.953 2.265-1.172.813-2.39 1.078-1.657.328-4.798.328h-3.015v8.641zm4.625-19.031v6.5h2.531q2.734 0 3.656-.36.922-.359 1.438-1.125.531-.765.531-1.78 0-1.25-.734-2.063-.735-.813-1.86-1.016-.828-.156-3.328-.156zm16.815 19.031V9.731h16.984v3.875h-12.36v5.078h11.5v3.86h-11.5v6.234h12.798v3.859zm42 0h-5.031l-2-5.203h-9.156l-1.891 5.203h-4.906l8.922-22.906h4.89zm-8.516-9.062l-3.156-8.5-3.094 8.5zm11.011 9.062V9.731h4.5l9.375 15.297V9.73h4.296v22.906h-4.64L301.193 17.7v14.937zM328.818 9.73h4.625v12.407q0 2.953.172 3.828.297 1.406 1.406 2.266 1.125.844 3.063.844 1.969 0 2.969-.797 1-.813 1.203-1.985.203-1.172.203-3.89V9.73h4.625v12.031q0 4.125-.375 5.828-.375 1.703-1.39 2.875-1 1.172-2.688 1.875-1.688.688-4.406.688-3.282 0-4.985-.75-1.687-.766-2.672-1.97-.984-1.218-1.296-2.546-.454-1.969-.454-5.812zM352 32.637V9.731h4.5l9.375 15.297V9.73h4.297v22.906h-4.64L356.297 17.7v14.937zm22.917 0V9.731h4.625v22.906zm8.099-11.312q0-3.5 1.047-5.875.781-1.75 2.125-3.141 1.36-1.39 2.969-2.063 2.14-.906 4.937-.906 5.063 0 8.094 3.14 3.047 3.141 3.047 8.735 0 5.547-3.016 8.688-3.016 3.125-8.062 3.125-5.11 0-8.125-3.11-3.016-3.125-3.016-8.593zm4.766-.157q0 3.89 1.796 5.907 1.797 2 4.563 2t4.531-1.985q1.781-2 1.781-5.984 0-3.938-1.734-5.875-1.719-1.938-4.578-1.938-2.86 0-4.61 1.969-1.75 1.953-1.75 5.906zm21.114 11.469V9.731h4.5l9.375 15.297V9.73h4.297v22.906h-4.64L413.193 17.7v14.937z" aria-label="EUROPEAN UNION" font-weight="700" font-size="24"/><path d="M138.273 59.988V45.672h5.4q1.426 0 2.178.136 1.055.176 1.768.674.713.488 1.142 1.377.44.889.44 1.953 0 1.826-1.162 3.096-1.163 1.26-4.2 1.26h-3.672v5.82zm1.894-7.51h3.702q1.836 0 2.607-.683.772-.684.772-1.924 0-.899-.46-1.533-.449-.645-1.19-.85-.48-.127-1.768-.127h-3.663zm18.018 7.51v-1.523q-1.21 1.757-3.291 1.757-.918 0-1.719-.351-.79-.352-1.181-.88-.381-.536-.537-1.308-.108-.517-.108-1.64v-6.426h1.758v5.752q0 1.377.107 1.855.166.694.703 1.094.538.39 1.329.39.79 0 1.484-.4.693-.41.977-1.103.292-.703.292-2.031v-5.557h1.758v10.371zm5.947 0h-1.63V45.672h1.757v5.107q1.114-1.396 2.842-1.396.957 0 1.807.39.859.381 1.406 1.084.557.694.869 1.68.313.986.313 2.11 0 2.665-1.319 4.12-1.318 1.455-3.164 1.455-1.836 0-2.88-1.533zm-.02-5.264q0 1.866.509 2.696.83 1.357 2.246 1.357 1.152 0 1.992-.996.84-1.006.84-2.988 0-2.032-.81-2.998-.802-.967-1.944-.967-1.153 0-1.992 1.006-.84.996-.84 2.89zm9.483 5.264V45.672h1.758v14.316zm4.492-12.295v-2.021h1.758v2.021zm0 12.295V49.617h1.758v10.371zm11.201-3.798l1.729.224q-.283 1.787-1.455 2.803-1.162 1.005-2.861 1.005-2.13 0-3.428-1.386-1.29-1.397-1.29-3.994 0-1.68.557-2.94t1.69-1.885q1.142-.634 2.48-.634 1.69 0 2.764.859 1.074.85 1.377 2.422l-1.709.263q-.244-1.044-.87-1.572-.614-.527-1.493-.527-1.328 0-2.158.957-.83.947-.83 3.008 0 2.09.8 3.037.801.947 2.09.947 1.035 0 1.729-.635.693-.634.878-1.953zm8.936 3.798V45.672h1.895v12.627h7.05v1.689zm10.986-12.295v-2.021h1.758v2.021zm0 12.295V49.617h1.758v10.371zm11.201-3.798l1.729.224q-.283 1.787-1.455 2.803-1.162 1.005-2.861 1.005-2.13 0-3.428-1.386-1.29-1.397-1.29-3.994 0-1.68.557-2.94t1.69-1.885q1.142-.634 2.48-.634 1.69 0 2.764.859 1.074.85 1.377 2.422l-1.71.263q-.243-1.044-.868-1.572-.615-.527-1.494-.527-1.328 0-2.159.957-.83.947-.83 3.008 0 2.09.801 3.037.801.947 2.09.947 1.035 0 1.729-.635.693-.634.878-1.953zm10.332.458l1.817.225q-.43 1.592-1.592 2.47-1.162.88-2.969.88-2.275 0-3.613-1.397-1.328-1.406-1.328-3.936 0-2.617 1.348-4.062 1.347-1.445 3.496-1.445 2.08 0 3.398 1.416t1.318 3.984q0 .156-.01.469h-7.734q.098 1.709.967 2.617.87.908 2.168.908.967 0 1.65-.508.684-.508 1.084-1.62zm-5.771-2.842h5.791q-.117-1.308-.664-1.963-.84-1.015-2.178-1.015-1.21 0-2.04.81-.821.811-.909 2.168zm9.795 6.182V49.617h1.582v1.475q1.142-1.71 3.3-1.71.938 0 1.72.342.79.332 1.181.88.39.546.547 1.298.098.488.098 1.71v6.376h-1.758v-6.309q0-1.074-.205-1.601-.205-.537-.733-.85-.517-.322-1.22-.322-1.123 0-1.944.713-.81.713-.81 2.705v5.664zm17.89-3.798l1.729.224q-.283 1.787-1.455 2.803-1.162 1.005-2.861 1.005-2.13 0-3.428-1.386-1.29-1.397-1.29-3.994 0-1.68.557-2.94t1.69-1.885q1.142-.634 2.48-.634 1.69 0 2.764.859 1.074.85 1.377 2.422l-1.709.263q-.244-1.044-.87-1.572-.614-.527-1.493-.527-1.328 0-2.159.957-.83.947-.83 3.008 0 2.09.801 3.037.801.947 2.09.947 1.035 0 1.729-.635.693-.634.878-1.953zm10.333.458l1.816.225q-.43 1.592-1.592 2.47-1.162.88-2.969.88-2.275 0-3.613-1.397-1.328-1.406-1.328-3.936 0-2.617 1.348-4.062 1.347-1.445 3.496-1.445 2.08 0 3.398 1.416t1.318 3.984q0 .156-.01.469h-7.734q.098 1.709.967 2.617.87.908 2.168.908.967 0 1.65-.508.684-.508 1.084-1.62zm-5.772-2.842h5.791q-.117-1.308-.664-1.963-.84-1.015-2.178-1.015-1.21 0-2.04.81-.821.811-.909 2.168zm18.232 6.182l-3.945-10.371h1.856l2.226 6.21q.361 1.007.664 2.09.235-.82.654-1.972l2.305-6.328h1.807l-3.926 10.371zm13.252 0h-1.758V48.787q-.634.605-1.67 1.21-1.025.606-1.845.909v-1.7q1.474-.693 2.578-1.679 1.103-.986 1.562-1.914h1.133zm5.488 0v-2.002h2.002v2.002zM308 58.299v1.689h-9.464q-.02-.635.205-1.22.362-.967 1.153-1.905.8-.937 2.304-2.168 2.334-1.914 3.155-3.027.82-1.123.82-2.12 0-1.044-.752-1.757-.742-.723-1.943-.723-1.27 0-2.032.762-.761.762-.771 2.11l-1.807-.186q.186-2.022 1.397-3.077 1.21-1.064 3.252-1.064 2.06 0 3.261 1.143 1.202 1.142 1.202 2.832 0 .859-.352 1.69-.352.83-1.172 1.747-.81.918-2.705 2.52-1.582 1.328-2.031 1.806-.45.469-.742.948z" aria-label="Public Licence v1.2" font-weight="400" font-size="15"/></g></svg>