<svg xmlns="http://www.w3.org/2000/svg" xmlns:xlink="http://www.w3.org/1999/xlink" width="129" height="20"><linearGradient id="b" x2="0" y2="100%"><stop offset="0" stop-opacity=".1" stop-color="#bbb"/><stop offset="1" stop-opacity=".1"/></linearGradient><mask id="a"><rect width="129" height="20" rx="3" fill="#fff"/></mask><g mask="url(#a)"><path fill="#555" d="M0 0h49v20H0z"/><path d="M49 0h80v20H49z" fill="#039"/><path fill="url(#b)" d="M0 0h129v20H0z"/></g><g font-size="11" text-anchor="middle" font-family="DejaVu Sans,Verdana,Geneva,sans-serif" fill="#fff"><text x="25.5" y="15" fill-opacity=".3" fill="#010101">licence</text><text x="25.5" y="14">licence</text><text x="98.625" y="15" fill="#010101" fill-opacity=".3">EUPL-1.2</text><text x="98.625" y="14">EUPL-1.2</text><g id="e" transform="translate(60.361 4.191) scale(.07532)" fill="#fc0"><g id="d"><path id="c" d="M0-20V0h10" transform="rotate(18 0 -20)"/><use height="100%" width="100%" xlink:href="#c" transform="scale(-1 1)"/></g><use height="100%" width="100%" xlink:href="#d" transform="rotate(72)"/><use height="100%" width="100%" xlink:href="#d" transform="rotate(144)"/><use height="100%" width="100%" xlink:href="#d" transform="rotate(-144)"/><use height="100%" width="100%" xlink:href="#d" transform="rotate(-72)"/></g><use height="100%" width="100%" xlink:href="#e" transform="translate(2.868 .769)"/><use height="100%" width="100%" xlink:href="#e" transform="translate(4.968 2.868)"/><use height="100%" width="100%" xlink:href="#e" transform="translate(5.737 5.737)"/><use height="100%" width="100%" xlink:href="#e" transform="translate(4.968 8.605)"/><use height="100%" width="100%" xlink:href="#e" transform="translate(2.868 10.705)"/><use height="100%" width="100%" xlink:href="#e" transform="translate(0 11.474)"/><use height="100%" width="100%" xlink:href="#e" transform="translate(-2.868 10.705)"/><use height="100%" width="100%" xlink:href="#e" transform="translate(-4.968 8.605)"/><use height="100%" width="100%" xlink:href="#e" transform="translate(-5.737 5.737)"/><use height="100%" width="100%" xlink:href="#e" transform="translate(-4.968 2.868)"/><use height="100%" width="100%" xlink:href="#e" transform="translate(-2.868 .769)"/></g></svg>